<svg width="60" height="60" viewBox="0 0 60 60" fill="none" xmlns="http://www.w3.org/2000/svg">
    <path d="M50.2851 3.53789C50.227 3.44081 50.1446 3.36045 50.0461 3.30466C49.9477 3.24886 49.8364 3.21954 49.7232 3.21954C49.61 3.21954 49.4988 3.24886 49.4003 3.30466C49.3018 3.36045 49.2195 3.44081 49.1613 3.53789L42.6762 14.407C42.6169 14.5064 42.585 14.6196 42.5838 14.7353C42.5826 14.851 42.612 14.9649 42.6692 15.0655C42.7264 15.166 42.8093 15.2496 42.9093 15.3077C43.0093 15.3658 43.123 15.3963 43.2387 15.3961H46.1519V19.0289C46.1591 19.1977 46.2312 19.3572 46.3531 19.4741C46.4751 19.591 46.6375 19.6563 46.8064 19.6563C46.9754 19.6563 47.1378 19.591 47.2597 19.4741C47.3817 19.3572 47.4538 19.1977 47.4609 19.0289V14.7422C47.4611 14.6562 47.4443 14.5711 47.4115 14.4916C47.3787 14.4121 47.3306 14.3399 47.2698 14.2791C47.2091 14.2182 47.1369 14.1699 47.0575 14.137C46.9781 14.1041 46.893 14.0871 46.807 14.0871H44.3906L49.7226 5.15625L55.0547 14.093H52.6394C52.4657 14.093 52.2991 14.162 52.1762 14.2848C52.0534 14.4077 51.9844 14.5743 51.9844 14.7481V55.4719H47.4609V26.6438C47.4538 26.475 47.3817 26.3155 47.2597 26.1986C47.1378 26.0816 46.9754 26.0164 46.8064 26.0164C46.6375 26.0164 46.4751 26.0816 46.3531 26.1986C46.2312 26.3155 46.1591 26.475 46.1519 26.6438V56.1328C46.1519 56.2188 46.1689 56.3039 46.2018 56.3833C46.2348 56.4627 46.283 56.5349 46.3439 56.5956C46.4047 56.6564 46.477 56.7045 46.5564 56.7373C46.6359 56.7701 46.7211 56.7869 46.807 56.7867H52.6394C52.8129 56.7867 52.9792 56.7178 53.1018 56.5952C53.2245 56.4726 53.2934 56.3063 53.2934 56.1328V15.3961H56.2066C56.3223 15.3963 56.436 15.3658 56.536 15.3077C56.636 15.2496 56.7189 15.166 56.7761 15.0655C56.8332 14.9649 56.8627 14.851 56.8615 14.7353C56.8603 14.6196 56.8284 14.5064 56.7691 14.407L50.2851 3.53789Z" fill="white" stroke="white" stroke-width="0.5"/>
    <path d="M46.807 23.5313C46.9805 23.5313 47.1468 23.4624 47.2694 23.3397C47.392 23.2171 47.4609 23.0508 47.4609 22.8773V22.643C47.4538 22.4742 47.3817 22.3147 47.2598 22.1978C47.1378 22.0809 46.9754 22.0156 46.8064 22.0156C46.6375 22.0156 46.4751 22.0809 46.3531 22.1978C46.2312 22.3147 46.1591 22.4742 46.1519 22.643V22.8773C46.1519 22.9633 46.1689 23.0484 46.2018 23.1279C46.2348 23.2073 46.283 23.2794 46.3439 23.3401C46.4047 23.4009 46.477 23.449 46.5564 23.4818C46.6359 23.5146 46.7211 23.5314 46.807 23.5313Z" fill="white" stroke="white" stroke-width="0.5"/>
    <path d="M23.9637 40.2832H18.1312C18.0453 40.2831 17.9601 40.2998 17.8806 40.3326C17.8012 40.3654 17.7289 40.4136 17.6681 40.4743C17.6073 40.535 17.559 40.6072 17.5261 40.6866C17.4931 40.766 17.4762 40.8511 17.4762 40.9371V56.1258C17.4762 56.2118 17.4931 56.297 17.526 56.3765C17.559 56.4559 17.6072 56.5282 17.668 56.589C17.7289 56.6498 17.8011 56.6981 17.8806 56.731C17.96 56.7639 18.0452 56.7809 18.1312 56.7809H23.9637C24.0496 56.7809 24.1348 56.7639 24.2142 56.731C24.2936 56.698 24.3657 56.6498 24.4265 56.5889C24.4872 56.5281 24.5353 56.4559 24.5681 56.3764C24.6009 56.2969 24.6177 56.2118 24.6176 56.1258V40.9371C24.6176 40.7637 24.5487 40.5974 24.426 40.4747C24.3034 40.3521 24.1371 40.2832 23.9637 40.2832V40.2832ZM23.3086 55.4719H18.7851V41.591H23.3086V55.4719Z" fill="white" stroke="white" stroke-width="0.5"/>
    <path d="M9.62578 46.9781H3.79335C3.70738 46.978 3.62223 46.9948 3.54275 47.0276C3.46328 47.0604 3.39106 47.1085 3.33021 47.1692C3.26937 47.23 3.2211 47.3021 3.18816 47.3815C3.15523 47.4609 3.13828 47.5461 3.13828 47.632V56.1258C3.13828 56.2995 3.20729 56.4661 3.33014 56.589C3.45299 56.7118 3.61962 56.7809 3.79335 56.7809H9.62578C9.71175 56.7809 9.79687 56.7639 9.87629 56.731C9.9557 56.698 10.0278 56.6498 10.0886 56.5889C10.1493 56.5281 10.1975 56.4559 10.2302 56.3764C10.263 56.2969 10.2798 56.2118 10.2797 56.1258V47.632C10.2797 47.4586 10.2108 47.2923 10.0882 47.1697C9.96553 47.047 9.7992 46.9781 9.62578 46.9781ZM8.97187 55.4719H4.45312V48.2813H8.97187V55.4719Z" fill="white" stroke="white" stroke-width="0.5"/>
    <path d="M38.3016 27.0563H32.4692C32.3832 27.0561 32.298 27.0729 32.2186 27.1057C32.1391 27.1385 32.0669 27.1866 32.006 27.2474C31.9452 27.3081 31.8969 27.3802 31.864 27.4596C31.831 27.5391 31.8141 27.6242 31.8141 27.7102V56.1258C31.8141 56.2995 31.8831 56.4661 32.006 56.589C32.1288 56.7118 32.2954 56.7809 32.4692 56.7809H38.3016C38.3876 56.7809 38.4727 56.7639 38.5521 56.731C38.6315 56.698 38.7036 56.6498 38.7644 56.5889C38.8251 56.5281 38.8733 56.4559 38.906 56.3764C38.9388 56.2969 38.9556 56.2118 38.9555 56.1258V27.7102C38.9555 27.5367 38.8866 27.3704 38.764 27.2478C38.6413 27.1251 38.475 27.0563 38.3016 27.0563ZM37.6465 55.4719H33.1231V28.3594H37.6465V55.4719Z" fill="white" stroke="white" stroke-width="0.5"/>
</svg>
