<svg width="68" height="68" viewBox="0 0 68 68" fill="none" xmlns="http://www.w3.org/2000/svg">
    <path d="M24.9546 59.772C24.9546 60.2603 25.3504 60.656 25.8386 60.656H42.2389C42.7271 60.656 43.1229 60.2603 43.1229 59.772V50.8273L46.9676 8.30688C46.9894 8.05936 46.9078 7.81456 46.7405 7.63096C46.5732 7.44736 46.3366 7.34264 46.0877 7.34264H21.9123C21.6634 7.34264 21.4268 7.44736 21.2595 7.63096C21.0922 7.81592 21.0093 8.06072 21.0324 8.30824L24.9546 50.83V59.772ZM41.3549 55.847H26.7226V51.6691H41.3549V55.847ZM26.7226 58.888V57.6164H41.3549V58.888H26.7226ZM45.1194 9.112L41.431 49.8998H26.6451L22.882 9.112H45.1194ZM30.1104 28.6117V31.8607C30.1104 32.349 30.5062 32.7447 30.9944 32.7447H37.298C37.7862 32.7447 38.182 32.349 38.182 31.8607V28.6117H41.4324C41.9206 28.6117 42.3164 28.2159 42.3164 27.7277V21.4227C42.3164 20.9345 41.9206 20.5387 41.4324 20.5387H38.182V17.2897C38.182 16.8014 37.7862 16.4057 37.298 16.4057H30.9944C30.5062 16.4057 30.1104 16.8014 30.1104 17.2897V20.5387H26.86C26.3718 20.5387 25.976 20.9345 25.976 21.4227V27.7277C25.976 28.2159 26.3718 28.6117 26.86 28.6117H30.1104ZM27.744 22.3067H30.9944C31.4826 22.3067 31.8784 21.911 31.8784 21.4227V18.1737H36.414V21.4227C36.414 21.911 36.8098 22.3067 37.298 22.3067H40.5484V26.8423H37.298C36.8098 26.8423 36.414 27.2381 36.414 27.7263V30.9754H31.8784V27.7263C31.8784 27.2381 31.4826 26.8423 30.9944 26.8423H27.744V22.3067Z" fill="white"/>
</svg>
