<svg width="52" height="52" viewBox="0 0 52 52" fill="none" xmlns="http://www.w3.org/2000/svg">
    <path d="M50.3074 24.9744H48.2406H43.0283C43.002 24.5636 42.9608 24.1563 42.9048 23.7537C42.9191 23.7514 42.9333 23.7525 42.9476 23.7491L45.5875 23.2366C46.1436 23.1279 46.5063 22.5902 46.3982 22.0342C46.29 21.4781 45.75 21.1154 45.1963 21.2242L42.5564 21.7367C42.5352 21.7413 42.5158 21.7504 42.4952 21.755C42.3888 21.3615 42.2676 20.9748 42.1325 20.5938L48.9237 17.8515C49.4488 17.6399 49.7028 17.0427 49.4911 16.5175C49.2795 15.9924 48.6823 15.7396 48.1571 15.9501L41.3219 18.7096C41.1395 18.3492 40.9468 17.9945 40.7384 17.6502L43.1256 16.1C43.6004 15.7911 43.7353 15.1561 43.4276 14.6814C43.1187 14.2065 42.4837 14.0727 42.009 14.3805L39.5652 15.9673C39.2592 15.5806 38.9359 15.2099 38.5962 14.853L43.9126 9.53648C44.3131 9.13718 44.3131 8.48738 43.9126 8.08698C43.5122 7.68658 42.8635 7.68658 42.4632 8.08698L37.093 13.4572C36.7937 13.2124 36.4843 12.9813 36.168 12.7582L37.8966 10.1955C38.2129 9.72641 38.0894 9.08915 37.6204 8.77227C37.1519 8.45657 36.5141 8.57896 36.1972 9.04917L34.4193 11.6851C34.0874 11.5101 33.7488 11.3465 33.4033 11.1943L36.4477 4.02786C36.669 3.50734 36.4259 2.90557 35.9048 2.68359C35.3836 2.46279 34.7819 2.7053 34.5604 3.22699L31.4772 10.485C31.1242 10.3808 30.7672 10.2882 30.4045 10.207L31.1104 6.88916C31.2277 6.33542 30.8742 5.79085 30.3205 5.67307C29.7685 5.55523 29.2228 5.9087 29.105 6.46243L28.3762 9.88774C27.9311 9.84653 27.4804 9.82371 27.0251 9.82027V3.75902V1.69267C27.0251 1.12632 26.5657 0.667555 25.9999 0.667555C25.4337 0.667555 24.9748 1.12632 24.9748 1.69267V3.75882V9.9322C24.6299 9.97224 24.2889 10.0248 23.9509 10.0866L23.2371 6.41186C23.1283 5.85702 22.5895 5.49315 22.0346 5.6019C21.4792 5.70941 21.1159 6.24826 21.2246 6.80316L21.9591 10.5831C21.641 10.685 21.3275 10.7982 21.0176 10.9194L17.852 3.0758C17.6392 2.55067 17.0414 2.29671 16.5175 2.50952C15.9923 2.72116 15.7389 3.31838 15.9506 3.84345L19.1551 11.7822C18.7879 11.9824 18.4315 12.1997 18.082 12.4274L15.803 9.04891C15.4866 8.57987 14.8495 8.45631 14.3803 8.77318C13.9107 9.08895 13.7872 9.72621 14.104 10.1953L16.4351 13.6514C16.1948 13.8551 15.9614 14.0668 15.7332 14.2841L9.53694 8.08672C9.13654 7.68632 8.48784 7.68632 8.08744 8.08672C7.68697 8.48712 7.68697 9.13699 8.08744 9.53622L14.3374 15.7862C14.1436 16.0242 13.9577 16.269 13.7768 16.5173L10.1959 14.1021C9.72797 13.7864 9.08961 13.9088 8.77325 14.379C8.4569 14.8481 8.58046 15.4853 9.0495 15.8023L12.6773 18.2483C12.5332 18.5125 12.3965 18.7803 12.2666 19.0514L4.02767 15.5518C3.50604 15.3299 2.90479 15.5735 2.6834 16.0941C2.46208 16.6158 2.70518 17.2176 3.22628 17.4384L11.5059 20.9565C11.4126 21.239 11.3263 21.5251 11.2485 21.8145L6.89079 20.8889C6.33764 20.7711 5.79255 21.1246 5.6747 21.6783C5.55686 22.2321 5.91033 22.7767 6.46413 22.8944L10.847 23.8257C10.7955 24.2044 10.7567 24.5876 10.7326 24.9743H3.75935H1.69261C1.12659 24.9743 0.667557 25.4331 0.667557 25.9994C0.667557 26.5657 1.12665 27.0245 1.69261 27.0245H3.75935H10.7324C10.7507 27.322 10.7782 27.616 10.8131 27.9078L6.41304 28.7635C5.85761 28.871 5.49433 29.4087 5.60249 29.9647C5.69739 30.4544 6.12645 30.7942 6.60752 30.7942C6.67219 30.7942 6.73849 30.7885 6.80427 30.7759L11.1809 29.9248C11.2529 30.213 11.3308 30.499 11.4177 30.7805L3.07581 34.1487C2.55067 34.3602 2.29724 34.9574 2.50894 35.4825C2.67021 35.8818 3.0541 36.1243 3.45963 36.1243C3.58775 36.1243 3.71703 36.1003 3.84287 36.0499L12.1522 32.6944C12.2781 32.9714 12.4108 33.2435 12.5521 33.5102L8.87446 35.899C8.3997 36.2079 8.26469 36.8428 8.57357 37.3165C8.76922 37.6197 9.09819 37.7833 9.43391 37.7833C9.62495 37.7833 9.81832 37.7307 9.99109 37.6186L13.6206 35.2606C13.8488 35.5867 14.0869 35.9048 14.3374 36.2125L8.08679 42.4625C7.68639 42.863 7.68639 43.5128 8.08679 43.9121C8.28699 44.1123 8.54959 44.213 8.8116 44.213C9.07355 44.213 9.33609 44.1123 9.53635 43.9121L15.7332 37.7159C15.9614 37.9321 16.1953 38.1438 16.4356 38.3474L14.104 41.8036C13.7872 42.2727 13.9112 42.9099 14.3809 43.2268C14.556 43.3458 14.7557 43.4019 14.953 43.4019C15.2824 43.4019 15.6057 43.244 15.8036 42.95L18.082 39.5715C18.352 39.7478 18.6272 39.9148 18.9081 40.075L15.5525 47.9712C15.3311 48.4929 15.5742 49.0947 16.0954 49.3155C16.2264 49.3715 16.3619 49.3979 16.4952 49.3979C16.8945 49.3979 17.2738 49.1634 17.4396 48.7733L20.7522 40.9753C21.0617 41.1024 21.3764 41.2179 21.6949 41.3265L20.8906 45.1088C20.7728 45.6626 21.1262 46.206 21.68 46.3237C21.7521 46.3398 21.8242 46.3466 21.8945 46.3466C22.3683 46.3466 22.7938 46.016 22.8962 45.5344L23.6765 41.8631C24.1055 41.9501 24.5402 42.0164 24.9806 42.0679C24.9796 42.0873 24.975 42.1056 24.975 42.1251V42.1297V48.2401V50.3075C24.975 50.8738 25.4338 51.3325 26.0001 51.3325C26.5658 51.3325 27.0252 50.8738 27.0252 50.3075V48.2401V42.1801C27.3839 42.1765 27.7396 42.1595 28.0926 42.1331L28.7641 45.5871C28.8591 46.0767 29.2882 46.4166 29.7692 46.4166C29.8338 46.4166 29.9003 46.4108 29.966 46.3971C30.5214 46.2895 30.8847 45.7518 30.7766 45.1958L30.1274 41.8563C30.4866 41.7819 30.8401 41.6926 31.1907 41.5966L34.1481 48.9232C34.3094 49.3225 34.6932 49.565 35.0989 49.565C35.227 49.565 35.3562 49.5409 35.4821 49.4906C36.0072 49.279 36.2612 48.6817 36.0495 48.1566L33.131 40.9262C33.5732 40.7408 34.004 40.5338 34.4256 40.3107C34.4376 40.3302 34.445 40.3519 34.4581 40.3714L36.1972 42.95C36.3951 43.244 36.7188 43.4019 37.0483 43.4019C37.2451 43.4019 37.4448 43.3459 37.6204 43.2269C38.0894 42.9101 38.2136 42.2727 37.8973 41.8036L36.1685 39.2409C36.4843 39.0178 36.7944 38.7868 37.093 38.5419L42.4633 43.9122C42.6635 44.1124 42.9254 44.2131 43.188 44.2131C43.4505 44.2131 43.7124 44.1124 43.9126 43.9122C44.3131 43.5128 44.3131 42.8631 43.9126 42.4626L38.5968 37.1461C38.8686 36.8601 39.1334 36.5672 39.3845 36.2618L41.8053 37.8955C41.9803 38.0134 42.18 38.0706 42.3773 38.0706C42.7068 38.0706 43.0301 37.9115 43.228 37.6186C43.5443 37.1484 43.4207 36.5111 42.9505 36.1954L40.5817 34.5971C40.794 34.2607 40.9943 33.9163 41.1817 33.5629L47.9718 36.4471C48.1023 36.5031 48.2383 36.5294 48.3722 36.5294C48.771 36.5294 49.1502 36.295 49.3161 35.9048C49.5375 35.3831 49.2944 34.7814 48.7733 34.5605L42.0267 31.6946C42.1702 31.3149 42.2978 30.927 42.4128 30.5345L45.1104 31.1077C45.182 31.1236 45.2535 31.1306 45.3244 31.1306C45.798 31.1306 46.2237 30.8 46.326 30.3183C46.4434 29.7645 46.0897 29.22 45.5361 29.1022L42.8641 28.5348C42.9426 28.0382 42.9963 27.5348 43.0283 27.0246H48.2406H50.3074C50.8731 27.0246 51.3325 26.5658 51.3325 25.9995C51.3325 25.4331 50.8731 24.9744 50.3074 24.9744ZM26.8804 40.1333C19.087 40.1333 12.7472 33.7929 12.7472 25.9995C12.7472 21.4576 14.9026 17.4121 18.2421 14.8254C18.2982 14.8002 18.3565 14.7807 18.4092 14.7453C18.4984 14.6858 18.5699 14.6114 18.6334 14.5325C20.9558 12.8576 23.804 11.8657 26.8804 11.8657C34.6737 11.8657 41.0135 18.2061 41.0135 25.9995C41.0135 33.7929 34.6737 40.1333 26.8804 40.1333Z" fill="white"/>
</svg>
