<svg width="57" height="57" viewBox="0 0 57 57" fill="none" xmlns="http://www.w3.org/2000/svg">
    <path d="M52.687 22.0186C53.1834 21.3726 53.5634 20.6435 53.808 19.8669C54.3875 17.9954 54.1619 15.9481 53.1834 14.25C52.2025 12.5519 50.5448 11.3311 48.6305 10.8989C47.8349 10.7255 47.0155 10.6899 46.2056 10.7944C46.3125 9.98688 46.2793 9.16275 46.0988 8.3695C45.6689 6.45763 44.4481 4.79988 42.75 3.81663C41.0542 2.83813 39.0094 2.60775 37.1355 3.192C36.3565 3.43663 35.6274 3.81663 34.9814 4.313C34.6702 3.5625 34.2309 2.86663 33.6775 2.26813C31.0199 -0.6175 25.9825 -0.6175 23.3249 2.26813C22.7691 2.86663 22.3298 3.5625 22.0186 4.313C21.3726 3.81663 20.6435 3.43663 19.8669 3.19438C17.9906 2.61013 15.9458 2.8405 14.25 3.81663C12.5519 4.79988 11.3311 6.45763 10.8989 8.3695C10.7208 9.16513 10.6875 9.98688 10.7944 10.7944C9.9845 10.6899 9.1675 10.7231 8.36712 10.9013C6.45762 11.3311 4.79987 12.5519 3.81662 14.25C2.83812 15.9481 2.6125 17.9954 3.19438 19.8645C3.439 20.6435 3.819 21.3726 4.31537 22.0186C3.5625 22.3298 2.86663 22.7691 2.26813 23.3225C0.8265 24.6525 0 26.5406 0 28.5C0 30.4594 0.8265 32.3475 2.26813 33.6775C2.86663 34.2309 3.5625 34.6703 4.313 34.9814C3.81662 35.6274 3.43663 36.3565 3.192 37.1331C2.6125 39.0046 2.83812 41.0519 3.81662 42.75C4.7975 44.4481 6.45525 45.6689 8.3695 46.1011C9.16512 46.2745 9.98688 46.3125 10.7944 46.2056C10.6875 47.0131 10.7208 47.8373 10.9013 48.6305C11.3311 50.5424 12.5519 52.2001 14.25 53.181C15.9458 54.1595 17.9906 54.3899 19.8645 53.8056C20.6435 53.561 21.3726 53.181 22.0186 52.6846C22.3298 53.4351 22.7667 54.131 23.3225 54.7295C24.6525 56.1735 26.5406 57 28.5 57C30.4594 57 32.3475 56.1735 33.6775 54.7319C34.2309 54.1334 34.6702 53.4375 34.9814 52.687C35.6274 53.1834 36.3565 53.5634 37.1331 53.808C39.0141 54.3946 41.0542 54.1619 42.75 53.1834C44.4481 52.2025 45.6689 50.5448 46.1011 48.6305C46.2792 47.8349 46.3125 47.0131 46.2056 46.2056C47.0155 46.3101 47.8349 46.2769 48.6305 46.0988C50.5424 45.6689 52.2001 44.4481 53.181 42.75C54.1595 41.0519 54.3875 39.0046 53.8056 37.1355C53.561 36.3565 53.181 35.6274 52.6846 34.9814C53.4351 34.6703 54.131 34.2333 54.7295 33.6775C56.1735 32.3475 57 30.4594 57 28.5C57 26.5406 56.1735 24.6525 54.7319 23.3225C54.1334 22.7691 53.4375 22.3298 52.687 22.0186ZM53.1216 31.9319C52.3355 32.6563 51.2929 33.0838 50.1909 33.1431C49.6755 33.1693 49.2385 33.5231 49.1031 34.0195C48.9701 34.5183 49.172 35.0455 49.6066 35.3258C50.5352 35.9266 51.2216 36.8196 51.5375 37.8409C51.9294 39.0996 51.7845 40.4225 51.1242 41.5625C50.4664 42.7049 49.3929 43.4934 48.108 43.7831C47.0606 44.0206 45.9468 43.8686 44.9611 43.3651C44.5004 43.13 43.9422 43.2203 43.5812 43.5836C43.2179 43.947 43.13 44.5051 43.3627 44.9635C43.8686 45.9491 44.0159 47.0678 43.7831 48.108C43.4934 49.3953 42.7049 50.4664 41.5601 51.1266C40.4201 51.7845 39.102 51.9318 37.8385 51.5399C36.8172 51.2216 35.9243 50.5353 35.3234 49.609C35.0455 49.1768 34.5159 48.982 34.0171 49.1055C33.5207 49.2409 33.1669 49.6779 33.1408 50.1933C33.0838 51.2976 32.6539 52.3379 31.9295 53.124C30.1388 55.062 26.8541 55.062 25.0634 53.124C24.339 52.3379 23.9115 51.2953 23.8521 50.1933C23.826 49.6779 23.4721 49.2409 22.9757 49.1055C22.8736 49.0794 22.7691 49.0651 22.667 49.0651C22.2704 49.0651 21.8927 49.2646 21.6695 49.609C21.0686 50.5376 20.1756 51.224 19.1544 51.5399C17.8956 51.9294 16.5775 51.7845 15.4375 51.1243C14.2951 50.4664 13.5066 49.3929 13.2169 48.108C12.9794 47.0654 13.129 45.9468 13.6349 44.9611C13.87 44.5028 13.7821 43.9446 13.4164 43.5813C13.0554 43.2203 12.4972 43.13 12.0365 43.3628C11.0485 43.8663 9.92988 44.0135 8.892 43.7831C7.60475 43.4934 6.53363 42.7049 5.87337 41.5601C5.2155 40.4201 5.06825 39.0973 5.46012 37.8385C5.77838 36.8173 6.46475 35.9243 7.391 35.3234C7.82562 35.0431 8.0275 34.5159 7.8945 34.0171C7.75912 33.5208 7.32212 33.1669 6.80675 33.1408C5.70237 33.0838 4.66213 32.6539 3.876 31.9295C2.90937 31.0365 2.375 29.8205 2.375 28.5C2.375 27.1795 2.90937 25.9635 3.87838 25.0681C4.6645 24.3438 5.70713 23.9163 6.80913 23.8569C7.3245 23.8308 7.7615 23.4769 7.89687 22.9805C8.02987 22.4818 7.828 21.9545 7.39337 21.6743C6.46712 21.0734 5.78075 20.1804 5.4625 19.1591C5.07062 17.9004 5.2155 16.5775 5.87575 15.4375C6.53363 14.2951 7.60712 13.5066 8.892 13.2169C9.937 12.977 11.0509 13.129 12.0389 13.6349C12.4996 13.8748 13.0578 13.7821 13.4187 13.4164C13.7821 13.053 13.87 12.4949 13.6372 12.0365C13.129 11.0509 12.9818 9.93463 13.2145 8.892C13.5066 7.60475 14.2951 6.53363 15.4375 5.87575C16.5775 5.2155 17.8956 5.06825 19.1591 5.4625C20.1804 5.78075 21.0734 6.46713 21.6743 7.39338C21.9545 7.82563 22.4841 8.02275 22.9805 7.89688C23.4769 7.7615 23.8307 7.3245 23.8569 6.80913C23.9139 5.70475 24.3438 4.6645 25.0681 3.87838C26.8589 1.94038 30.1435 1.94038 31.9342 3.87838C32.6586 4.6645 33.0861 5.70713 33.1455 6.80913C33.1716 7.3245 33.5255 7.7615 34.0219 7.89688C34.5182 8.02038 35.0479 7.82563 35.3281 7.39338C35.929 6.46475 36.822 5.77838 37.8433 5.4625C39.1068 5.06825 40.4249 5.2155 41.5649 5.87575C42.7072 6.53363 43.4958 7.60713 43.7855 8.892C44.023 9.93463 43.8734 11.0533 43.3675 12.0389C43.1324 12.4973 43.2202 13.0554 43.586 13.4188C43.947 13.7821 44.5051 13.8748 44.9659 13.6373C45.9515 13.1314 47.0701 12.9841 48.1104 13.2169C49.3976 13.5066 50.4688 14.2951 51.129 15.4399C51.7869 16.5799 51.9341 17.9028 51.5422 19.1615C51.224 20.1828 50.5376 21.0758 49.6114 21.6766C49.1768 21.9569 48.9749 22.4841 49.1079 22.9829C49.2433 23.4793 49.6803 23.8331 50.1956 23.8593C51.3 23.9163 52.3402 24.3461 53.1264 25.0705C54.0906 25.9635 54.625 27.1795 54.625 28.5C54.625 29.8205 54.0906 31.0365 53.1216 31.9319Z" fill="white"/>
    <path d="M39.9048 19.9571L25.3413 34.523L18.4158 27.5975C17.9526 27.1344 17.1998 27.1344 16.7366 27.5975C16.2735 28.0606 16.2735 28.8135 16.7366 29.2766L24.5029 37.0429C24.7261 37.2661 25.0278 37.3896 25.3436 37.3896C25.6595 37.3896 25.9611 37.2637 26.1844 37.0429L41.5863 21.6386C42.0494 21.1755 42.0494 20.4226 41.5863 19.9595C41.1231 19.4964 40.3679 19.494 39.9048 19.9571Z" fill="white"/>
</svg>
