<svg width="52" height="54" viewBox="0 0 52 54" fill="none" xmlns="http://www.w3.org/2000/svg">
    <path d="M50.8082 54C50.569 53.73 50.3152 53.473 50.0947 53.1878C47.9232 50.3842 45.7558 47.5783 43.6051 44.7595C43.4429 44.5457 43.3472 44.2217 43.3451 43.9495C43.3285 40.4633 43.3306 36.977 43.3347 33.493C43.3368 32.3698 43.1163 31.3049 42.6587 30.2832C42.0701 28.9591 41.2381 27.8122 40.3042 26.7408C39.6448 25.9848 38.9626 25.2547 38.2907 24.5138C38.2387 24.5549 38.1867 24.5959 38.1347 24.637C38.1347 24.7817 38.1347 24.9286 38.1347 25.0733C38.1347 27.9396 38.1992 30.8102 38.1056 33.6744C38.0598 35.0438 38.2803 36.1649 39.4181 36.9619C39.4909 37.0138 39.5512 37.0894 39.6074 37.1606C39.9152 37.5473 39.9194 38.0592 39.6219 38.3854C39.3037 38.7353 38.8648 38.772 38.4509 38.4674C38.3032 38.3594 38.1784 38.2212 38.0515 38.0894C36.4811 36.4608 34.917 34.8235 33.3382 33.2035C32.6581 32.5037 31.5931 32.4346 30.9878 33.0199C30.4221 33.5664 30.4179 34.6118 30.9754 35.3808C32.5978 37.6294 34.2035 39.893 35.8571 42.1157C36.271 42.673 36.4749 43.2216 36.4021 43.9085C36.2648 45.2326 36.6163 46.453 37.284 47.5481C38.2554 49.1422 39.287 50.7017 40.3333 52.2461C40.872 53.0431 40.8533 53.4384 40.0837 54C39.9027 54 39.7238 54 39.5429 54C39.416 53.8747 39.2725 53.7646 39.1664 53.6242C37.7187 51.7061 36.2835 49.7707 35.3413 47.5178C35.1125 46.967 34.8733 46.7834 34.2971 46.7856C24.1322 46.8072 13.9672 46.8094 3.80432 46.7813C3.15952 46.7813 2.47728 46.615 1.87824 46.3558C0.79872 45.8892 0.30368 44.8805 0 43.7638C0 30.1882 0 16.6126 0 3.03696C0.1144 2.70864 0.20592 2.37168 0.34736 2.05632C0.85904 0.9072 1.79712 0.32184 2.92448 0C13.6864 0 24.4462 0 35.2082 0C37.5336 0.66096 38.1763 2.35656 38.1555 4.39992C38.0931 10.1347 38.1368 15.8695 38.1264 21.6022C38.1264 21.9499 38.2138 22.1832 38.4758 22.4165C40.067 23.8334 41.5771 25.339 42.8314 27.0929C44.2166 29.0326 45.1048 31.1472 45.0778 33.629C45.0403 36.8712 45.0632 40.1112 45.0798 43.3534C45.0819 43.6061 45.1797 43.9063 45.3315 44.105C46.7251 45.9454 48.1458 47.7641 49.5477 49.5979C50.3755 50.6822 51.1826 51.7838 52 52.8746C52 53.2505 52 53.6263 52 54C51.6027 54 51.2054 54 50.8082 54ZM31.1626 30.9139C31.1626 22.9954 31.1626 15.1114 31.1626 7.24464C23.0651 7.24464 15.0072 7.24464 6.9472 7.24464C6.9472 17.4312 6.9472 27.5724 6.9472 37.7525C14.8158 37.7525 22.6304 37.7525 30.5178 37.7525C29.665 36.5731 28.6874 35.545 28.8226 33.9703C28.9578 32.3957 29.7378 31.3762 31.1626 30.9139ZM36.4 33.2446C36.4 23.4554 36.4 13.6685 36.3979 3.88152C36.3979 2.51424 35.7136 1.80144 34.3949 1.80144C24.1758 1.79928 13.9568 1.79928 3.73984 1.80144C2.41488 1.80144 1.7368 2.5056 1.73472 3.87936C1.73056 5.79312 1.73472 7.70472 1.73472 9.61632C1.73472 20.6777 1.73264 31.7412 1.7368 42.8026C1.7368 44.3362 2.38368 44.9993 3.84176 44.9993C13.8986 44.9993 23.9533 44.9993 34.0101 44.9993C34.2202 44.9993 34.4282 44.9993 34.605 44.9993C34.7984 44.0402 34.6195 43.295 34.035 42.5952C33.3382 41.7614 32.7579 40.8262 32.0923 39.9622C31.9509 39.7786 31.6618 39.6166 31.4392 39.6166C24.1467 39.5971 16.8522 39.6036 9.5576 39.6036C8.12032 39.6036 6.68096 39.6036 5.23328 39.6036C5.23328 28.1707 5.23328 16.8026 5.23328 5.44104C14.4851 5.44104 23.6995 5.44104 32.941 5.44104C32.941 13.9579 32.941 22.4294 32.941 30.7174C33.617 31.2379 34.2181 31.644 34.7506 32.13C35.2914 32.6225 35.7656 33.1927 36.269 33.7306C36.3126 33.7111 36.3563 33.6938 36.4 33.6766C36.4 33.5318 36.4 33.3871 36.4 33.2446ZM13.0208 41.4094C13.4784 41.4223 13.8715 41.8522 13.857 42.3209C13.8424 42.7961 13.4326 43.2022 12.9792 43.1914C12.5258 43.1827 12.1306 42.7507 12.141 42.2777C12.1534 41.8068 12.5694 41.3964 13.0208 41.4094ZM22.5118 43.1719C20.2197 43.1719 17.9546 43.1719 15.6416 43.1719C15.6416 42.6168 15.6416 42.0487 15.6416 41.4374C17.9067 41.4374 20.1864 41.4374 22.5118 41.4374C22.5118 42.0314 22.5118 42.5866 22.5118 43.1719ZM25.141 41.405C25.5902 41.4115 25.9938 41.837 25.9917 42.3079C25.9917 42.7831 25.5861 43.2 25.1285 43.1914C24.673 43.1849 24.2694 42.7615 24.2715 42.295C24.2757 41.8284 24.6938 41.4007 25.141 41.405ZM11.2902 21.6389C16.4632 21.6389 21.6299 21.6389 26.8424 21.6389C26.8424 22.2286 26.8424 22.7837 26.8424 23.3712C21.6528 23.3712 16.4861 23.3712 11.2902 23.3712C11.2902 22.7923 11.2902 22.2372 11.2902 21.6389ZM11.2757 14.4396C16.457 14.4396 21.6237 14.4396 26.8299 14.4396C26.8299 14.9969 26.8299 15.565 26.8299 16.1698C21.657 16.1698 16.4902 16.1698 11.2757 16.1698C11.2757 15.5671 11.2757 15.025 11.2757 14.4396ZM11.3069 10.8346C14.1523 10.8346 17.0102 10.8346 19.9077 10.8346C19.9077 11.4329 19.9077 11.988 19.9077 12.5734C17.0394 12.5734 14.196 12.5734 11.3069 12.5734C11.3069 12.0139 11.3069 11.4437 11.3069 10.8346ZM26.8237 19.7618C21.6694 19.7618 16.5006 19.7618 11.2902 19.7618C11.2902 19.1678 11.2902 18.6127 11.2902 18.0274C16.4694 18.0274 21.6237 18.0274 26.8237 18.0274C26.8237 18.5825 26.8237 19.1506 26.8237 19.7618ZM26.8258 26.9633C21.6674 26.9633 16.5006 26.9633 11.2902 26.9633C11.2902 26.3671 11.2902 25.812 11.2902 25.2266C16.4715 25.2266 21.6258 25.2266 26.8258 25.2266C26.8258 25.7861 26.8258 26.3542 26.8258 26.9633ZM26.8258 30.5662C21.6694 30.5662 16.5006 30.5662 11.2902 30.5662C11.2902 29.9657 11.2902 29.4084 11.2902 28.8252C16.4715 28.8252 21.6258 28.8252 26.8258 28.8252C26.8258 29.3868 26.8258 29.9549 26.8258 30.5662Z" fill="white"/>
</svg>
