<svg width="49" height="41" viewBox="0 0 49 41" fill="none" xmlns="http://www.w3.org/2000/svg">
    <path d="M1.79992 40.2835H13.4493C13.9734 40.2835 14.3983 39.8645 14.3983 39.3475V36.5525C15.8305 36.4776 18.8308 36.5741 20.4631 38.4504C22.0341 40.2562 26.0432 40.6925 30.4086 40.6925C32.5869 40.6925 34.8543 40.583 36.9509 40.4837C38.2342 40.4232 39.4212 40.3656 40.4301 40.344C42.2492 40.3037 43.6771 38.7744 43.6771 36.8606C43.6771 36.0514 43.4114 35.304 42.969 34.7122C43.9954 34.0872 44.6816 32.8661 44.6816 31.4462C44.6816 30.6211 44.4407 29.8579 44.0363 29.2416C45.251 28.6584 46.0803 27.3754 46.0803 25.8691C46.0803 25.1103 45.8627 24.4046 45.4875 23.8157C47.0453 23.3319 48.1491 21.948 48.1491 20.2935C48.1491 18.2487 46.4 16.5854 44.2509 16.5854H37.4166C34.9244 16.5854 33.8717 16.1823 33.6644 15.9691C33.2498 15.5472 32.8059 14.8071 33.7272 13.2677C34.1944 12.4872 34.6747 11.7744 35.1215 11.1135C36.272 9.40417 37.2677 7.92961 37.2677 6.39169C37.2677 2.93425 35.9157 0.880809 33.5622 0.758409C31.1795 0.625929 31.0437 2.74417 30.9882 3.75793C30.9576 4.32961 30.9225 4.97617 30.6831 5.23969C30.3356 5.62129 29.5034 6.25921 28.5427 6.99649C26.636 8.45953 24.024 10.4626 22.4721 12.5578C20.812 14.7955 18.1402 17.6957 17.3913 18.1939H14.3997V16.7064C14.3997 16.1894 13.9749 15.7704 13.4507 15.7704H1.79992C1.27578 15.7704 0.850922 16.1894 0.850922 16.7064V39.349C0.850922 39.8645 1.27578 40.2835 1.79992 40.2835ZM17.5679 20.0645C19.1593 20.0645 23.9569 13.727 24.0036 13.6622C25.4008 11.7773 27.8901 9.86785 29.7078 8.47393C30.7838 7.64881 31.6336 6.99649 32.0949 6.49105C32.7826 5.73793 32.8395 4.69537 32.8848 3.85729C32.9519 2.60017 33.006 2.60449 33.4629 2.62753C35.0383 2.70961 35.3697 4.71985 35.3697 6.39169C35.3697 7.36513 34.5229 8.62225 33.5418 10.0766C33.079 10.765 32.5796 11.5051 32.0949 12.3158C30.5605 14.8776 31.5664 16.5192 32.3008 17.2694C33.0717 18.0571 34.7945 18.456 37.4195 18.456H44.2538C45.3561 18.456 46.2525 19.2797 46.2525 20.292C46.2525 21.3 45.3955 22.1064 44.3093 22.1266L36.5333 22.1597C36.0252 22.1597 35.6077 22.5528 35.5858 23.0539C35.5639 23.555 35.9435 23.9842 36.4486 24.0288L42.55 24.0317C43.4523 24.0317 44.1852 24.8554 44.1852 25.8677C44.1852 26.8613 43.4698 27.685 42.5938 27.7037L36.234 27.7368C35.7318 27.7368 35.3171 28.1213 35.2879 28.6152C35.2573 29.1091 35.6223 29.5411 36.1187 29.6016L41.3995 29.6088C42.1529 29.6088 42.7865 30.4498 42.7865 31.4448C42.7865 32.4398 42.1777 33.2635 41.4345 33.2808L35.0675 33.3744C34.5448 33.3759 34.1229 33.7963 34.1229 34.3118C34.1243 34.8274 34.5492 35.245 35.0719 35.245H40.36C41.1455 35.245 41.7835 35.9679 41.7835 36.8578C41.7835 37.7304 41.1601 38.4533 40.3936 38.4706C39.3716 38.4922 38.1671 38.5498 36.8647 38.6131C31.6073 38.8637 23.662 39.2439 21.91 37.2307C19.7711 34.7741 16.2014 34.5912 14.4041 34.6762V20.0645H17.5679ZM2.75038 17.641H12.5017V38.4115H2.75038V17.641Z" fill="white"/>
</svg>
