<svg width="58" height="58" viewBox="0 0 58 58" fill="none" xmlns="http://www.w3.org/2000/svg">
    <path d="M29 51.4297C41.3703 51.4297 51.4297 41.3703 51.4297 29C51.4297 16.6297 41.3703 6.57031 29 6.57031C16.6297 6.57031 6.57031 16.6297 6.57031 29C6.57031 41.3703 16.6297 51.4297 29 51.4297ZM29 8.38281C40.3734 8.38281 49.6172 17.6266 49.6172 29C49.6172 40.3734 40.3734 49.6172 29 49.6172C17.6266 49.6172 8.38281 40.3734 8.38281 29C8.38281 17.6266 17.6266 8.38281 29 8.38281Z" fill="white"/>
    <path d="M49.1188 52.7437V46.0375L47.5781 47.5781C39.4672 55.6891 27.1875 57.5922 16.9922 52.3812L16.1766 54.0125C20.2547 56.0969 24.65 57.1391 29 57.1391C35.6156 57.1391 42.0953 54.7828 47.3063 50.3422V52.7891H49.1188V52.7437Z" fill="white"/>
    <path d="M5.25627 47.3062V49.1187H11.9625L10.4219 47.5781C2.35627 39.5578 0.407832 27.3234 5.52814 17.1734L3.89689 16.3578C-1.22342 26.5531 0.317207 38.7422 7.70315 47.3062H5.25627Z" fill="white"/>
    <path d="M52.4266 40.9172L54.0578 41.7328C59.2688 31.4922 57.7282 19.2578 50.2969 10.6484H55.0094V8.83594H46.0375L47.5782 10.4219C55.6438 18.4875 57.5922 30.7672 52.4266 40.9172Z" fill="white"/>
    <path d="M40.9172 5.57344L41.7328 3.94219C31.4922 -1.26875 19.2578 0.271876 10.6938 7.70313V5.25625H8.88126V11.9625L10.4219 10.4219C18.4875 2.35625 30.7672 0.407813 40.9172 5.57344Z" fill="white"/>
    <path d="M29.9063 11.0563H28.0938V12.5063H29.9063V11.0563Z" fill="white"/>
    <path d="M46.9438 28.0938H45.4938V29.9062H46.9438V28.0938Z" fill="white"/>
    <path d="M29.9063 45.4938H28.0938V46.9438H29.9063V45.4938Z" fill="white"/>
    <path d="M12.5063 28.0938H11.0563V29.9062H12.5063V28.0938Z" fill="white"/>
    <path d="M28.0938 32.5797H29.9063V29.9063H38.3344V28.0938H29.9063V15.1797H28.0938V28.0938H25.4203V29.9063H28.0938V32.5797Z" fill="white"/>
</svg>
