<svg width="44" height="44" viewBox="0 0 44 44" fill="none" xmlns="http://www.w3.org/2000/svg">
    <path d="M25.3811 44C25.0695 44 24.7602 43.8709 24.54 43.6173C24.1372 43.153 24.1869 42.4506 24.6505 42.0478L34.9223 33.1318L24.6505 24.221C24.1869 23.8183 24.1372 23.1159 24.54 22.6516C24.9412 22.188 25.6444 22.1376 26.1094 22.5411L37.3492 32.2915C37.5924 32.5021 37.7326 32.8092 37.7326 33.1318C37.7326 33.4545 37.5924 33.7608 37.3492 33.9722L26.1094 43.7278C25.8988 43.9102 25.6392 44 25.3811 44Z" fill="white"/>
    <path d="M36.2915 35.0499H23.6202C14.0515 35.0499 6.26738 27.1878 6.26738 17.5249C6.26738 7.86204 13.9781 0 23.4563 0C24.0705 0 24.5689 0.498424 24.5689 1.11255C24.5689 1.72668 24.0705 2.22511 23.4563 2.22511C15.2056 2.22511 8.49249 9.08882 8.49249 17.5249C8.49249 25.8187 15.42 32.8248 23.6202 32.8248H36.2915C36.9064 32.8248 37.404 33.3232 37.404 33.9373C37.404 34.5515 36.9064 35.0499 36.2915 35.0499Z" fill="white"/>
</svg>
