<svg width="130" height="214" viewBox="0 0 130 214" fill="none" xmlns="http://www.w3.org/2000/svg">
    <path d="M130 -0.00012207H0V214H130V-0.00012207Z" fill="#EAB4B4"/>
    <path fill-rule="evenodd" clip-rule="evenodd" d="M66.1963 214H39.7888L42.5383 210.891C43.1832 210.239 43.2637 210.025 43.8198 209.361C44.3253 208.758 44.6605 208.497 45.1508 207.888L47.9405 204.755C49.9815 204.757 50.9836 204.642 52.6061 203.854C53.7176 203.316 55.4095 201.998 55.9596 201.329C56.6098 200.537 57.6491 199.093 58.1214 197.875C58.3367 197.32 58.6648 196.341 58.6629 195.602C58.6583 194.228 58.1797 194.366 57.6453 193.577C58.0381 193.105 58.3993 192.827 58.749 192.398C59.2288 191.809 59.3462 191.62 59.9249 191.016C61.5564 189.312 65.7636 184.067 67.0522 183.034L66.196 214H66.1963ZM14.8298 214H-0.00030899V201.193L14.1456 213.429C14.367 213.619 14.5966 213.809 14.8298 214V214Z" fill="#ADC2FF"/>
    <path fill-rule="evenodd" clip-rule="evenodd" d="M91.9282 147.552L93.4054 203.761L93.6693 214H121.403C121.365 212.976 121.314 211.985 121.246 211.043C120.829 205.258 121.223 199.113 120.87 193.324L120.316 175.75C120.171 163.591 118.447 135.936 116.225 125.608C114.85 116.914 108.792 105.892 104.347 101.019C95.4495 91.2651 93.3921 91.3859 80.7247 88.0784L84.8703 94.4262C86.8911 97.5334 94.3458 112.151 94.9703 115.255L89.4253 117.512C90.0352 118.137 92.8801 120.084 93.7161 120.45C93.7161 124.868 93.2471 129.968 92.9838 134.297C92.8488 136.519 92.6948 138.742 92.5427 141.077L91.9285 147.552L91.9282 147.552Z" fill="#9CAEC8"/>
    <path fill-rule="evenodd" clip-rule="evenodd" d="M7.54052 106.902C7.60433 106.847 7.69292 106.678 7.72514 106.728C7.85493 106.928 10.3742 102.09 13.5065 99.0092C18.6452 93.9558 23.2919 91.2385 30.8491 89.2667C32.962 88.7153 40.4846 86.8474 42.1405 87.0341C43.6314 85.2253 47.7828 82.1376 51.2766 81.5671C51.4287 79.3068 52.0935 76.8515 52.3193 74.4322C53.4657 62.1523 51.5845 65.6321 51.0573 60.4076C50.8427 58.283 50.873 55.0513 50.8696 52.9319C60.0268 50.433 59.1591 53.8657 68.5291 45.0388C72.9921 40.8344 75.693 33.9837 78.3036 29.4425C79.871 29.9488 83.0882 32.2381 83.8521 33.069C85.1847 34.5184 86.1322 36.4208 87.1659 38.6839C91.252 47.6313 89.2171 59.8045 86.1003 68.8872C84.0039 74.9974 82.088 77.5178 75.7819 76.1867L75.5982 83.5127C76.7087 84.0847 77.5782 84.8641 78.3578 85.6362C78.8005 86.0747 79.1006 86.3351 79.4854 86.8088C79.9376 87.366 79.9739 87.5963 80.7241 88.0789C93.3915 91.3864 95.4492 91.2656 104.347 101.02C108.792 105.892 114.849 116.915 116.225 125.609C117.864 124.871 120.462 121.953 121.516 120.419C128.661 110.021 119.997 98.2335 113.705 90.6973C112.104 88.7806 110.61 86.8659 109.159 84.5171C106.297 79.8847 104.165 75.3974 103.078 69.2142C101.049 57.6783 105.306 46.9018 98.3402 31.3918C93.8657 21.4292 87.6191 12.8646 76.8357 9.99562C74.1767 9.28801 70.3914 8.84268 67.5063 9.07783C62.3472 9.49851 57.9625 6.37838 48.9702 10.5584C47.4235 11.2774 46.6872 11.6654 45.5637 12.5191C32.0349 22.7988 16.7485 55.3456 12.287 70.0565C9.22128 80.1642 6.03973 91.3676 6.95228 102.187C7.07371 103.628 7.53185 105.615 7.5399 106.902L7.54052 106.902Z" fill="#5B5B5B"/>
    <path fill-rule="evenodd" clip-rule="evenodd" d="M7.54052 106.902C7.6923 107.702 1.49491 121.701 0 125.049V184.749C8.073 189.349 16.1259 192.466 25.2827 194.962C28.3181 195.789 34.9959 197.813 37.7401 197.907L38.3698 197.146C39.7455 194.938 42.0321 192.768 42.0024 189.055C41.4386 188.701 39.8434 187.319 39.323 186.841C34.5542 182.468 27.6347 176.77 23.4734 172.576C22.4992 171.594 21.7251 171.097 20.7856 170.158C19.9167 169.29 19.2325 168.605 18.3583 167.736C13.7673 163.168 12.9542 162.462 14.8828 157.925C15.9428 155.432 16.6258 155.208 17.9705 153.61C18.477 153.008 18.5439 152.804 19.125 152.208C22.9765 148.256 29.5125 139.898 33.1934 136.163C37.8206 131.467 41.3116 135.416 43.2309 136.88C44.0617 137.514 45.2825 138.555 45.9822 139.235C49.7997 142.945 57.9628 149.282 62.0957 153.242C62.6278 153.752 62.9484 153.898 63.5091 154.382C64.0143 154.818 64.3139 155.195 64.8374 155.61C65.9005 156.451 66.5782 157.121 67.6283 157.876L67.8297 150.552L65.1673 147.134C61.3309 141.834 56.2908 135.821 52.4135 130.541C49.4881 126.557 50.541 128.641 52.8425 123.055C50.5041 123.35 47.5251 123.695 45.0972 123.247C43.239 120.317 42.2914 110.214 42.0244 105.992C41.8426 103.121 41.6186 94.0399 41.8209 90.9777C41.8794 90.0935 41.8645 89.2867 41.9135 88.4324C41.9748 87.3673 42.2651 87.4363 42.1405 87.035C40.4846 86.8483 32.962 88.7159 30.8491 89.2676C23.2919 91.2394 18.6448 93.9564 13.5065 99.0101C10.3742 102.09 7.85493 106.929 7.72514 106.728C7.69261 106.679 7.60402 106.848 7.54052 106.903V106.902Z" fill="#9CAEC8"/>
    <path fill-rule="evenodd" clip-rule="evenodd" d="M51.6843 93.6566C51.3219 95.3433 53.9449 106.316 54.5192 108.597C55.7428 113.456 57.3071 117.745 58.8791 122.592L67.8297 150.551L67.6283 157.875C69.4482 159.772 71.5487 161.364 73.4906 163.036C75.2562 164.555 78.076 166.555 77.0271 170.593C76.5755 172.331 73.6172 175.48 72.3342 176.891L67.0525 183.034L66.1963 214H88.5626H93.6693L93.4054 203.761L91.9282 147.552C91.4115 136.907 91.9062 142.16 89.442 132.392C87.0807 123.03 81.3628 109.951 78.2014 99.7881L76.4801 93.2911C76.4612 93.2418 76.4001 93.202 76.3856 93.0938C76.371 92.9841 76.3246 92.9595 76.2858 92.8966C75.7859 95.1236 74.0357 96.2821 71.8795 96.9999C69.4098 97.8221 67.2439 97.6178 64.5409 97.3903C61.0843 97.0988 57.4861 96.3376 54.3436 95.0259C53.1141 94.5131 52.6994 94.1432 51.684 93.6566H51.6843Z" fill="#294689"/>
    <path fill-rule="evenodd" clip-rule="evenodd" d="M42.0024 189.055C43.7792 188.952 45.3587 188.358 47.3473 188.526C49.0612 188.67 51.6719 188.588 52.6198 189.251C51.8373 190.444 50.545 190.293 49.1328 190.722C49.1929 190.76 49.2895 190.734 49.323 190.82L51.346 191.447C52.1 191.636 52.7963 191.813 53.5655 192.034C54.9867 192.442 56.4583 193.284 57.6456 193.577C58.0387 193.105 58.3999 192.827 58.7496 192.398C59.2295 191.809 59.3469 191.62 59.9255 191.016C61.557 189.312 65.7642 184.067 67.0528 183.035L72.3345 176.892C73.6176 175.481 76.5758 172.331 77.0274 170.594C78.0763 166.555 75.2565 164.556 73.4909 163.036C71.5487 161.364 69.4488 159.772 67.6286 157.876C66.5785 157.121 65.9005 156.451 64.8377 155.61C64.3139 155.195 64.0143 154.818 63.5094 154.382C62.9488 153.898 62.6282 153.752 62.096 153.241C57.9628 149.282 49.8 142.945 45.9825 139.235C45.2828 138.555 44.062 137.514 43.2312 136.88C41.3119 135.416 37.8206 131.467 33.1937 136.163C29.5131 139.898 22.9769 148.256 19.1253 152.208C18.5445 152.804 18.4773 153.008 17.9711 153.609C16.6264 155.208 15.9434 155.431 14.8834 157.925C12.9545 162.462 13.768 163.168 18.3589 167.736C19.2331 168.605 19.9173 169.29 20.7862 170.158C21.7254 171.097 22.4998 171.594 23.474 172.576C27.6357 176.77 34.5548 182.468 39.3236 186.841C39.844 187.319 41.4392 188.701 42.003 189.055H42.0024Z" fill="#EAB4B4"/>
    <path fill-rule="evenodd" clip-rule="evenodd" d="M51.277 81.5674C51.1273 84.4749 50.9046 91.281 51.6846 93.6565C52.7 94.1432 53.1148 94.5133 54.3442 95.0258C57.4867 96.3375 61.0849 97.0987 64.5416 97.3903C67.2445 97.6177 69.4101 97.8224 71.8801 96.9998C74.0364 96.282 75.7862 95.1235 76.2865 92.8965L75.5452 83.7384C68.6 83.4527 63.2551 79.8995 59.3397 75.0202C58.4343 73.8923 56.4661 71.3028 56.016 69.7505C58.3504 70.8933 58.4628 72.1738 64.794 74.1718C67.8501 75.1361 72.3475 76.0801 75.7822 76.1867C82.0883 77.5178 84.0042 74.9974 86.1006 68.8872C89.2174 59.8045 91.2523 47.6313 87.1662 38.6839C86.1325 36.4209 85.185 34.5184 83.8524 33.069C83.0885 32.2381 79.8713 29.9486 78.3039 29.4425C75.6933 33.984 72.9925 40.8345 68.5294 45.0388C59.1591 53.8657 60.0268 50.4331 50.8699 52.9319C50.8733 55.0513 50.843 58.2833 51.0576 60.4077C51.5852 65.6321 53.466 62.1523 52.3196 74.4322C52.0938 76.8518 51.429 79.3069 51.277 81.5671V81.5674Z" fill="#FEB17D"/>
    <path fill-rule="evenodd" clip-rule="evenodd" d="M7.70815e-07 201.193L14.1459 213.428C14.3673 213.619 14.5969 213.809 14.8301 214H39.7892L42.5386 210.891C43.1835 210.239 43.2641 210.025 43.8201 209.361C44.3256 208.758 44.6608 208.497 45.1511 207.888L47.9408 204.755C47.3885 204.082 46.397 203.639 45.569 203.036C44.6385 202.358 44.0096 201.803 43.1343 201.134C41.5278 199.906 39.9289 198.421 38.3695 197.146L37.7398 197.907C34.9953 197.814 28.3174 195.789 25.2824 194.962C16.1256 192.466 8.07269 189.349 -0.00030899 184.749V201.193H7.70815e-07Z" fill="#EAB4B4"/>
    <path fill-rule="evenodd" clip-rule="evenodd" d="M42.1409 87.0344C42.2654 87.436 41.9751 87.3667 41.9138 88.4318C41.8649 89.2861 41.8797 90.0932 41.8212 90.9771C41.6186 94.0396 41.8426 103.12 42.0247 105.991C42.292 110.214 43.239 120.316 45.0975 123.246C47.5254 123.694 50.5044 123.35 52.8428 123.054C50.5413 128.64 49.4881 126.556 52.4138 130.54C56.2911 135.82 61.3312 141.833 65.1676 147.134L67.83 150.551L58.8794 122.592C57.3071 117.745 55.7428 113.457 54.5192 108.598C53.9446 106.316 51.3216 95.3436 51.6843 93.6568C50.9046 91.2813 51.1273 84.4752 51.2766 81.5677C47.7828 82.1382 43.6314 85.2257 42.1405 87.0348L42.1409 87.0344Z" fill="#ADC8ED"/>
    <path fill-rule="evenodd" clip-rule="evenodd" d="M76.2862 92.8966C76.3249 92.9595 76.3713 92.9845 76.3859 93.0939C76.4005 93.2023 76.4615 93.2418 76.4801 93.2914L78.2014 99.7884C81.3628 109.952 87.0807 123.03 89.442 132.392C91.9062 142.161 91.4115 136.907 91.9282 147.552L92.5424 141.077C92.6945 138.742 92.8485 136.519 92.9835 134.297C93.2468 129.968 93.7158 124.868 93.7158 120.45C92.8798 120.084 90.0349 118.137 89.425 117.512L94.97 115.255C94.3455 112.151 86.8908 97.5334 84.87 94.4262L80.7241 88.0784C79.9739 87.5957 79.9376 87.3655 79.4854 86.8083C79.101 86.3346 78.8008 86.0742 78.3578 85.6356C77.5782 84.8636 76.7087 84.0842 75.5982 83.5122L75.5446 83.7381L76.2858 92.8963L76.2862 92.8966Z" fill="#ADC8ED"/>
    <path fill-rule="evenodd" clip-rule="evenodd" d="M42.0024 189.055C42.0321 192.768 39.7455 194.938 38.3698 197.146C39.9292 198.421 41.5281 199.906 43.1346 201.134C44.01 201.803 44.6388 202.358 45.569 203.036C46.397 203.639 47.3885 204.082 47.9411 204.755C49.9815 204.758 50.9839 204.642 52.6068 203.855C53.7182 203.316 55.4098 201.999 55.9602 201.329C56.6104 200.537 57.6494 199.094 58.1221 197.876C58.3373 197.321 58.6654 196.341 58.6635 195.602C58.6589 194.229 58.1803 194.367 57.6456 193.577C56.4583 193.284 54.9867 192.442 53.5655 192.034C52.7963 191.813 52.1 191.637 51.346 191.447L49.323 190.82C49.2895 190.735 49.1929 190.76 49.1328 190.723C50.5447 190.293 51.8373 190.444 52.6198 189.251C51.6719 188.588 49.0612 188.671 47.3473 188.526C45.3587 188.358 43.7792 188.952 42.0024 189.055Z" fill="#FEB17D"/>
    <path fill-rule="evenodd" clip-rule="evenodd" d="M75.5452 83.7387L75.5988 83.5128L75.7825 76.1868C72.3479 76.0801 67.8504 75.1361 64.7943 74.1718C58.4631 72.1738 58.3507 70.8933 56.0163 69.7505C56.4664 71.3028 58.4346 73.8923 59.34 75.0202C63.2557 79.8998 68.6004 83.453 75.5455 83.7384L75.5452 83.7387Z" fill="#ED985E"/>
</svg>
