<svg width="131" height="216" viewBox="0 0 131 216" fill="none" xmlns="http://www.w3.org/2000/svg">
    <path d="M0 0H131V216H0V0Z" fill="#D8DBE0"/>
    <path fill-rule="evenodd" clip-rule="evenodd" d="M24.4152 153.129C28.8335 153.143 33.663 153.296 38.0376 153.115C40.4208 153.017 49.1804 152.677 51.062 153.136C50.8913 160.425 50.9276 168.786 50.2997 175.921L36.4835 181.247C34.8987 181.672 26.5956 175.786 24.3003 175.053L24.4154 153.129H24.4152ZM1.52588e-05 147.383V179.441C0.429626 179.912 0.880905 180.354 1.35718 180.777L2.06833 180.231C9.26807 173.866 11.2565 166.021 15.4176 158.154C15.7572 157.513 16.0313 157.033 16.3661 156.496C16.8571 155.709 16.8732 155.538 18.1795 155.564C19.4994 161.049 14.6754 179.522 12.7303 186.94L12.0557 188.67L9.56565 203.013L7.27705 216H107.16C107.167 214.505 107.189 213.023 107.229 211.568C107.03 206.415 107.197 201.359 107.197 196.21C107.197 191.848 106.822 184.928 107.483 181.013C107.401 180.823 107.379 180.621 107.123 180.23C107.337 180.069 107.087 180.204 107.647 179.896C107.862 179.777 107.948 179.741 108.195 179.633C113.678 177.225 116.283 176.143 121.625 172.581C124.012 170.99 125.891 169.54 127.95 167.885C129.032 167.016 130.028 166.001 131 165.037V151.064C127.015 144.125 118.474 131.943 113.662 127.176L109.044 122.357C104.318 118.127 100.417 114.245 94.3811 111.305L85.439 107.448C86.3211 110.886 87.0241 113.279 87.394 117.272C87.729 120.89 87.4992 124.144 87.5015 127.84C87.903 128.605 89.8776 129.144 90.666 129.672C91.8605 130.473 92.495 130.946 93.4209 131.901C99.488 138.163 97.5829 147.241 95.2272 154.924C91.9659 165.56 85.0803 173.315 84.9062 173.998C84.5376 175.443 84.6819 176.811 82.7874 176.78C81.0903 176.752 80.8376 175.501 80.9407 173.819C81.4329 173.471 81.5137 173.21 82.0634 172.979C82.775 172.681 82.9133 172.95 83.4949 172.769C84.1404 172.567 84.7564 171.498 85.3462 170.742C92.4585 161.618 102.334 139.276 90.2175 131.164C83.1063 126.402 74.2599 130.371 70.7996 139.74C67.5205 148.619 67.7974 158.051 67.7864 168.443C68.2768 169.378 70.0733 169.92 68.9467 171.928C68.3124 173.059 66.2917 173.05 65.589 171.925C64.5999 170.343 66.0047 169.556 66.2717 168.662C66.4729 167.989 66.2161 164.99 66.2183 163.989C66.2422 152.781 66.5592 134.133 78.3167 128.894C80.1172 128.091 84.1248 127.047 86.331 127.978C87.6515 121.849 85.8199 112.053 84.1183 107.092L78.5598 105.672C76.6251 108.47 75.7145 110.257 73.2892 113.146C72.7327 113.809 72.4298 114.331 71.8731 114.888C71.4815 115.28 71.4064 115.277 71.0799 115.663C67.82 119.516 64.2782 122.302 60.2701 125.32C59.066 126.227 57.7877 127.1 56.5013 127.852C55.8973 128.205 53.2498 129.98 52.5615 129.801L52.0987 130.122C51.1493 126.137 49.6097 121.946 48.6119 117.88C47.7109 114.208 45.9098 108.488 46.0161 104.527C44.7934 104.782 44.1064 104.885 42.9024 105.368C42.1813 105.657 41.0372 106.372 40.6738 106.848C39.9906 107.741 40.3053 108.377 38.9309 108.778C37.9139 109.074 37.036 109.107 36.0327 109.57C34.001 112.789 31.9094 124.278 31.4768 128.625C33.0652 129.304 35.6915 130.005 35.4943 133.595C35.1826 139.28 26.3418 139.217 26.3687 133.344C26.3854 129.643 29.0446 129.302 30.2818 128.625C30.9835 125.368 31.1493 122.001 31.9798 118.653C32.7939 115.37 33.5498 112.552 34.6143 109.686C33.0599 110.303 30.8389 110.715 29.124 111.318C23.298 113.366 15.5341 117.999 12.0585 122.592C9.56059 125.894 6.55692 132.4 4.8035 136.313C3.157 139.987 1.55182 143.669 1.52588e-05 147.383Z" fill="#EAB4B4"/>
    <path fill-rule="evenodd" clip-rule="evenodd" d="M107.483 181.013C109.109 182.592 116.853 193.572 118.016 195.407C120.023 198.572 126.636 207.392 126.672 211.574C126.675 212.933 126.447 214.433 126.061 216H131V165.037C130.029 166.001 129.032 167.016 127.951 167.885C125.891 169.54 124.012 170.99 121.625 172.581C116.283 176.143 113.678 177.225 108.195 179.633C107.948 179.741 107.863 179.777 107.647 179.896C107.087 180.204 107.338 180.069 107.123 180.23C107.379 180.621 107.401 180.823 107.483 181.013L107.483 181.013Z" fill="#FEB17D"/>
    <path fill-rule="evenodd" clip-rule="evenodd" d="M32.3534 63.5236C34.4235 63.4167 34.9532 60.6229 35.4707 58.446C36.6507 53.4838 36.752 49.5768 39.6228 45.5476C40.3981 44.4597 42.895 41.5781 43.8724 41.1537C44.3818 41.8447 46.1679 47.6062 47.3978 50.2031C50.221 56.165 53.053 60.7493 57.5474 65.2251C59.22 66.8909 62.4513 69.5959 65.2173 70.5857C64.8093 69.7405 64.6474 69.7002 63.9684 69.0405C63.4191 68.5068 63.0588 68.1498 62.5204 67.6043C60.39 65.4469 55.9253 60.3465 55.0376 58.0856C55.9455 58.4824 57.5331 59.9958 58.4241 60.6842C59.5104 61.5231 60.7619 62.151 62.1665 62.7116C64.6333 63.696 69.0686 64.4073 71.8833 64.5614C72.0553 66.3668 71.9251 71.7301 71.5348 73.6944C70.9765 76.5062 69.2921 78.3595 70.1199 81.6533C71.2459 80.04 72.0851 78.1643 73.7993 77.2317C76.7831 75.6089 76.8126 78.0519 80.1436 77.5776C87.4055 76.5436 91.9706 65.0109 92.5309 57.38C92.7995 53.7261 91.9423 46.1692 90.5165 43.3481C93.5084 43.4298 95.0603 46.8049 100.674 39.0653C103.07 35.7606 105.185 32.5561 104.761 27.3831C104.15 19.9363 101.956 13.691 94.0737 13.8905C91.3025 13.9606 89.6725 14.8143 87.2356 15.2078C89.6654 12.5152 94.8451 13.3271 98.6014 13.0316C94.7957 11.5743 87.0563 12.1791 83.3337 13.6782C79.7056 15.1392 75.7365 18.7282 74.7629 22.5446C73.6868 22.164 73.9432 22.0355 72.9259 21.3516C72.5651 21.109 71.685 20.6147 71.0509 20.3337C63.5655 17.0164 55.0918 21.7252 49.2614 25.8112C47.1931 27.2603 41.1402 32.3929 39.6839 34.0806C38.7134 35.2053 38.1148 36.1659 36.7199 37.1505C34.4953 38.7212 32.2776 40.8238 31.2479 43.4744C28.7907 49.8014 29.9535 57.4956 32.3533 63.5238L32.3534 63.5236Z" fill="#434242"/>
    <path fill-rule="evenodd" clip-rule="evenodd" d="M7.27701 216L9.56561 203.013L-3.05176e-05 200.108V216H7.27701Z" fill="#294689"/>
    <path fill-rule="evenodd" clip-rule="evenodd" d="M32.3533 63.5237C32.8662 69.0151 33.8563 74.833 35.4483 79.9005C36.1904 82.2622 37.2782 84.9777 38.5219 86.5452C40.8823 89.5199 41.9125 88.609 46.2371 88.5569C54.6349 88.0008 61.3572 85.8178 66.7143 81.8087C63.3192 89.0337 55.6861 95.8707 46.7554 96.1376L46.7208 90.3652C46.4775 89.245 46.6871 89.8892 46.2879 89.3523C46.411 91.903 46.3453 94.6189 46.3657 97.1912C46.3855 99.7072 45.9591 102.48 46.0162 104.527C45.9099 108.488 47.711 114.208 48.612 117.88C49.6098 121.946 51.1493 126.137 52.0986 130.122L52.5616 129.801L73.5897 100.856C73.4004 99.4896 72.6885 98.0377 72.276 96.651C71.8319 95.1577 71.4707 93.5554 71.1889 91.9787C70.6395 88.9003 70.1332 85.1768 70.1198 81.6534C69.2921 78.3596 70.9764 76.5062 71.5348 73.6945C71.9251 71.7302 72.0552 66.3669 71.8833 64.5615C69.0687 64.4075 64.6334 63.6962 62.1665 62.7117C60.7618 62.1511 59.5104 61.5232 58.4241 60.6843C57.5331 59.9959 55.9455 58.4825 55.0376 58.0857C55.9253 60.3467 60.3901 65.4471 62.5204 67.6045C63.0588 68.1499 63.4191 68.507 63.9684 69.0407C64.6473 69.7003 64.8094 69.7406 65.2173 70.5859C62.4514 69.596 59.2201 66.891 57.5474 65.2252C53.0531 60.7495 50.2211 56.1653 47.3977 50.2033C46.1679 47.6064 44.3818 41.8448 43.8724 41.1538C42.8949 41.5782 40.3981 44.46 39.6228 45.5478C36.7519 49.577 36.6507 53.4839 35.4706 58.4461C34.9532 60.6231 34.4235 63.4168 32.3533 63.5238V63.5237Z" fill="#FEB17D"/>
    <path fill-rule="evenodd" clip-rule="evenodd" d="M24.4152 153.129L24.3003 175.053C26.5954 175.786 34.8985 181.672 36.4833 181.247L50.2994 175.921C50.9275 168.786 50.8912 160.425 51.0617 153.136C49.1802 152.677 40.4206 153.017 38.0375 153.115C33.6632 153.296 28.8335 153.143 24.4151 153.129L24.4152 153.129Z" fill="#D99E9E"/>
    <path fill-rule="evenodd" clip-rule="evenodd" d="M-7.62939e-06 200.108L9.56562 203.013L12.0557 188.67C10.2392 187.795 7.83114 186.025 6.29655 184.93C4.60457 183.723 2.58546 182.243 1.35716 180.777C0.880786 180.354 0.429604 179.912 -7.62939e-06 179.441V200.108V200.108Z" fill="#FEB17D"/>
    <path fill-rule="evenodd" clip-rule="evenodd" d="M1.35718 180.777C2.58548 182.243 4.60459 183.723 6.29657 184.93C7.83134 186.025 10.2392 187.795 12.0557 188.67L12.7303 186.94C14.6754 179.522 19.4994 161.049 18.1796 155.564C16.8732 155.537 16.8571 155.709 16.3661 156.496C16.0312 157.033 15.757 157.513 15.4176 158.154C11.2565 166.021 9.26806 173.866 2.06851 180.231L1.35718 180.777Z" fill="#D99E9E"/>
    <path fill-rule="evenodd" clip-rule="evenodd" d="M84.1184 107.092C85.8199 112.053 87.6514 121.848 86.3311 127.978C84.1249 127.047 80.1173 128.092 78.3167 128.894C66.5593 134.133 66.2423 152.781 66.2184 163.989C66.2163 164.99 66.4731 167.989 66.2718 168.662C66.0048 169.556 64.6 170.343 65.5891 171.925C66.292 173.05 68.3125 173.059 68.9467 171.928C70.0733 169.919 68.2766 169.378 67.7865 168.443C67.7974 158.051 67.5205 148.619 70.7997 139.74C74.2599 130.371 83.1064 126.402 90.2174 131.164C102.334 139.277 92.4588 161.617 85.3463 170.742C84.7565 171.498 84.1406 172.567 83.495 172.769C82.9134 172.95 82.7751 172.681 82.0635 172.979C81.5136 173.21 81.433 173.47 80.9408 173.819C80.8377 175.501 81.0904 176.752 82.7875 176.78C84.6818 176.811 84.5377 175.443 84.9063 173.998C85.0805 173.315 91.9658 165.559 95.2273 154.924C97.5829 147.241 99.488 138.163 93.421 131.901C92.4952 130.946 91.8606 130.473 90.6661 129.672C89.8778 129.144 87.9033 128.604 87.5016 127.84C87.4993 124.144 87.729 120.889 87.3941 117.272C87.0244 113.279 86.3211 110.886 85.4391 107.448C84.8326 106.478 85.4131 106.602 84.3522 106.397L84.1184 107.092L84.1184 107.092Z" fill="#294689"/>
    <path fill-rule="evenodd" clip-rule="evenodd" d="M52.5616 129.801C53.2499 129.98 55.8975 128.205 56.5014 127.852C57.7878 127.1 59.0661 126.227 60.2699 125.32C64.2784 122.301 67.8201 119.516 71.08 115.663C71.4065 115.277 71.4814 115.28 71.8732 114.888C72.4297 114.331 72.7329 113.809 73.2892 113.146C75.7145 110.257 76.6252 108.469 78.5598 105.672C78.3777 103.262 75.8455 101.173 73.5897 100.856L52.5616 129.801V129.801Z" fill="#D99E9E"/>
    <path fill-rule="evenodd" clip-rule="evenodd" d="M46.237 88.5568L46.2878 89.3522C46.687 89.8891 46.4774 89.2449 46.7208 90.3651L46.7554 96.1375C55.686 95.8706 63.319 89.0336 66.7142 81.8086C61.3572 85.8177 54.6348 88.0007 46.237 88.5568Z" fill="#ED985E"/>
    <path fill-rule="evenodd" clip-rule="evenodd" d="M34.6143 109.686C33.5498 112.552 32.7938 115.37 31.9798 118.653C31.1493 122.001 30.9834 125.368 30.2819 128.625C29.0447 129.302 26.3853 129.643 26.3684 133.344C26.3417 139.217 35.1825 139.28 35.4942 133.595C35.6913 130.005 33.0651 129.304 31.4767 128.626C31.9092 124.278 34.0009 112.789 36.0326 109.57C36.2252 108.588 36.474 108.722 35.9865 107.939C34.8981 108.08 35.098 108.48 34.6142 109.686L34.6143 109.686Z" fill="#3B55A1"/>
</svg>
