<svg width="43" height="43" viewBox="0 0 43 43" fill="none" xmlns="http://www.w3.org/2000/svg">
    <path d="M21.5 38.1289C30.6711 38.1289 38.1289 30.6711 38.1289 21.5C38.1289 12.3289 30.6711 4.87109 21.5 4.87109C12.3289 4.87109 4.87109 12.3289 4.87109 21.5C4.87109 30.6711 12.3289 38.1289 21.5 38.1289ZM21.5 6.21484C29.932 6.21484 36.7852 13.068 36.7852 21.5C36.7852 29.932 29.932 36.7852 21.5 36.7852C13.068 36.7852 6.21484 29.932 6.21484 21.5C6.21484 13.068 13.068 6.21484 21.5 6.21484Z" fill="white"/>
    <path d="M21.5 42.3281C32.9891 42.3281 42.3281 32.9891 42.3281 21.5C42.3281 10.0109 32.9891 0.671875 21.5 0.671875C10.0109 0.671875 0.671875 10.0109 0.671875 21.5C0.671875 32.9891 10.0109 42.3281 21.5 42.3281ZM21.5 2.01562C32.25 2.01562 40.9844 10.75 40.9844 21.5C40.9844 32.25 32.25 40.9844 21.5 40.9844C10.75 40.9844 2.01562 32.25 2.01562 21.5C2.01562 10.75 10.75 2.01562 21.5 2.01562Z" fill="white"/>
    <path d="M22.1719 8.19702H20.8281V9.27202H22.1719V8.19702Z" fill="white"/>
    <path d="M34.8032 20.8281H33.7281V22.1719H34.8032V20.8281Z" fill="white"/>
    <path d="M22.1719 33.7283H20.8281V34.8033H22.1719V33.7283Z" fill="white"/>
    <path d="M9.27187 20.8281H8.19687V22.1719H9.27187V20.8281Z" fill="white"/>
    <path d="M20.8281 24.1541H22.1719V22.172H28.4203V20.8283H22.1719V11.2205H20.8281V20.8283H18.8461V22.172H20.8281V24.1541Z" fill="white"/>
</svg>
