<svg width="212" height="46" viewBox="0 0 212 46" fill="none" xmlns="http://www.w3.org/2000/svg">
    <path fill-rule="evenodd" clip-rule="evenodd" d="M101.953 22.2248C101.953 31.2609 108.238 38.4994 117.122 40.5692C117.158 38.9739 117.475 39.1674 117.475 37.3943C109.414 37.3943 100.717 25.2987 106.296 14.9265C114.148 0.330417 136.525 5.29513 136.525 22.9306C136.525 31.2812 129.516 38.1851 122.061 38.8056V39.5111C132.49 39.5111 142.178 26.4656 136.065 14.2185C131.309 4.68881 117.789 0.0915418 107.409 9.68929C104.358 12.5101 101.953 18.0654 101.953 22.2251V22.2248Z" fill="#434242"/>
    <path fill-rule="evenodd" clip-rule="evenodd" d="M112.889 22.2248C112.889 25.3792 115.223 28.2903 117.25 29.1525C120.3 30.4497 123.369 29.9899 125.652 27.9318C129.828 24.1662 128.933 14.8165 119.945 14.8165C116.19 14.8165 112.889 18.56 112.889 22.2247V22.2248Z" fill="#434242"/>
    <path fill-rule="evenodd" clip-rule="evenodd" d="M142.522 29.986H153.811C153.811 32.937 154.022 32.1567 154.164 33.8666H155.928C155.928 30.8703 155.697 30.726 156.281 28.2222C155.637 27.9031 155.839 27.95 154.87 27.8694L154.882 16.2154C154.936 12.9532 155.216 13.0527 152.4 13.0527V27.8694H144.992V13.0527H142.523V29.986H142.522Z" fill="#434242"/>
    <path fill-rule="evenodd" clip-rule="evenodd" d="M9.87811 14.1111V28.9277C9.87811 30.2247 10.6313 29.986 12.3475 29.986V15.1694H19.7558V28.9277C19.7558 30.2247 20.5089 29.986 22.2253 29.986V13.0527H10.9364C10.1235 13.0527 9.87811 13.2982 9.87811 14.1111Z" fill="#434242"/>
    <path fill-rule="evenodd" clip-rule="evenodd" d="M52.5642 24.3415C52.5642 17.1637 59.2669 18.8327 59.2669 22.5776C59.2669 24.8921 59.6972 28.2221 55.7392 28.2221C53.5736 28.2221 52.5642 26.5429 52.5642 24.3414V24.3415ZM52.5642 19.4026C52.5212 17.4723 52.5838 17.6387 50.0947 17.6387V33.8665C50.0947 35.1635 50.8478 34.9248 52.5642 34.9248V28.5749C53.575 29.2517 53.7357 29.7501 55.2978 30.1027C62.1032 31.6387 64.2259 20.0363 58.4134 17.77C55.1601 16.5015 53.6001 18.709 52.5642 19.4027V19.4026Z" fill="#434242"/>
    <path fill-rule="evenodd" clip-rule="evenodd" d="M200.025 28.2222C195.003 28.2222 195.304 19.4027 200.025 19.4027C204.357 19.4027 204.357 28.2222 200.025 28.2222ZM196.144 19.7555V17.6388H194.028V33.8666C194.028 34.9527 194.516 34.9249 195.439 34.9249C197.142 34.9249 196.497 31.8197 196.497 28.575C197.508 29.252 197.669 29.7499 199.231 30.1028C205.716 31.5677 208.306 20.4149 202.314 17.8028C199.811 16.7121 197.706 17.9588 196.144 19.7555H196.144Z" fill="#434242"/>
    <path fill-rule="evenodd" clip-rule="evenodd" d="M72.3196 20.1082L72.4249 20.2133C72.4179 20.2065 72.2846 20.1432 72.3196 20.1082ZM64.2058 29.9859H67.0281L72.3198 20.8137V29.9859H74.7893V17.6387C71.1624 17.6387 72.0656 17.379 67.8816 24.4894L66.7721 26.5548C66.3433 27.2283 66.636 26.8031 66.3226 27.1636C66.3582 25.5682 66.6754 25.7618 66.6754 23.9886C66.6754 16.9077 67.2751 17.6387 64.2059 17.6387V29.9859H64.2058Z" fill="#434242"/>
    <path fill-rule="evenodd" clip-rule="evenodd" d="M170.744 29.986H173.214V24.6943H178.506V29.986H180.975V17.6388H178.506V22.5776H173.214V17.6388H170.744V29.986Z" fill="#434242"/>
    <path fill-rule="evenodd" clip-rule="evenodd" d="M38.4531 24.6943C38.4531 22.0598 38.4334 19.4026 41.9808 19.4026C46.2562 19.4026 46.5206 28.2221 41.6281 28.2221C39.7259 28.2221 38.4531 26.4774 38.4531 24.6942V24.6943ZM35.9836 23.2832C35.9836 32.8465 47.6253 32.3685 47.6253 23.2832C47.6253 15.375 35.9836 15.7611 35.9836 23.2832Z" fill="#434242"/>
    <path fill-rule="evenodd" clip-rule="evenodd" d="M162.278 19.4027H163.336C165.367 19.4027 165.806 20.5083 165.806 22.5777H159.808C160.082 21.4025 160.923 19.4027 162.278 19.4027ZM167.57 29.6333C167.49 28.6807 167.404 28.6735 167.217 27.8694C165.109 28.0447 159.927 29.6692 159.809 24.3415H168.275C168.275 14.9695 159.817 16.1469 157.938 21.4145C156.914 24.2823 157.609 27.2427 159.538 28.8451C162.262 31.1081 164.341 29.9018 167.57 29.6333Z" fill="#434242"/>
    <path fill-rule="evenodd" clip-rule="evenodd" d="M82.1974 28.2222C81.0121 28.2222 79.3752 28.5101 79.3752 26.4583C79.3752 23.6802 82.7646 23.9887 84.3141 23.9887C84.3141 25.5248 84.1835 28.2222 82.1974 28.2222ZM77.9641 18.3444C78.1514 19.1486 78.2376 19.1557 78.3167 20.1083C80.1905 19.6719 84.2137 17.7246 84.314 22.2249C74.2412 22.2249 76.2428 29.8638 80.5181 30.1802C82.1319 30.2996 83.5752 29.3058 84.6667 28.5749V29.986H86.7834C86.7834 25.663 87.5237 19.9613 84.5351 18.1211C82.1898 16.6769 80.2959 17.801 77.9641 18.3443V18.3444Z" fill="#434242"/>
    <path fill-rule="evenodd" clip-rule="evenodd" d="M89.2529 18.3444C89.4403 19.1486 89.5266 19.1557 89.6057 20.1083C90.4343 19.9154 94.8975 17.9446 94.8975 21.1666C94.8975 22.8246 92.7084 22.5777 91.0169 22.5777C90.9377 23.5304 90.8514 23.5375 90.6642 24.3417C94.1704 24.3417 95.2503 24.5817 95.2503 26.8111C95.2503 28.9443 90.8763 28.2955 89.2531 27.5167C89.0657 28.3209 88.9795 28.328 88.9004 29.2806C95.0697 32.2408 101.914 27.1389 95.4774 23.4091C95.4305 23.3819 95.3215 23.3328 95.2504 23.2835C98.4779 22.4217 98.1416 18.1414 94.0038 17.4663C92.4113 17.2066 90.6859 18.0107 89.2531 18.3445L89.2529 18.3444Z" fill="#434242"/>
    <path fill-rule="evenodd" clip-rule="evenodd" d="M25.0475 22.9304C25.0475 32.262 31.9871 29.8483 34.5725 29.6332C34.3851 28.829 34.299 28.8217 34.2197 27.8693C30.8288 27.9448 27.5169 29.7068 27.5169 22.9303C27.5169 18.81 31.6997 19.5457 34.2197 19.7553C34.299 18.8028 34.3851 18.7955 34.5725 17.9914C32.0844 17.4118 30.82 17.0675 28.3499 18.1184C26.8412 18.7604 25.0475 21.0641 25.0475 22.9302V22.9304Z" fill="#434242"/>
    <path fill-rule="evenodd" clip-rule="evenodd" d="M182.739 19.7555H186.267V29.986H188.736V19.7555C191.511 19.7555 192.617 20.1375 192.617 18.6972C192.617 17.8843 192.371 17.6388 191.558 17.6388H182.739V19.7555H182.739Z" fill="#434242"/>
    <path fill-rule="evenodd" clip-rule="evenodd" d="M128.764 25.3998C130.144 25.285 132.982 24.9722 133.703 23.9887L129.114 21.8774C129.117 23.7464 128.88 24.0077 128.764 25.3997L128.764 25.3998Z" fill="#434242"/>
    <path fill-rule="evenodd" clip-rule="evenodd" d="M118.181 35.2776C119.668 34.8803 119.544 33.8012 121.003 31.0443C119.449 31.0096 119.354 30.6915 117.475 30.6915C117.825 32.1917 118.181 33.3932 118.181 35.2776Z" fill="#434242"/>
    <path fill-rule="evenodd" clip-rule="evenodd" d="M112.536 18.3444L115.006 15.5222C113.344 15.135 111.762 14.2522 110.067 14.1111L112.536 18.3444Z" fill="#434242"/>
    <path fill-rule="evenodd" clip-rule="evenodd" d="M107.597 20.1082V20.8137C109.313 21.2134 110.115 22.1779 111.831 22.5776C111.904 21.7 112.234 20.0322 112.536 19.4026C110.477 19.4026 109.496 20.0659 107.597 20.1082Z" fill="#434242"/>
    <path fill-rule="evenodd" clip-rule="evenodd" d="M122.061 30.6916C122.634 31.774 124.38 34.2495 125.589 34.5721C125.589 32.3581 125.236 31.3985 125.236 29.6333C124.209 30.177 123.635 30.6565 122.061 30.6916Z" fill="#434242"/>
    <path fill-rule="evenodd" clip-rule="evenodd" d="M124.531 14.4639C125.113 15.2589 126.425 16.0895 127.353 16.5805C127.773 15.7058 128.669 13.141 128.764 11.9944C127.292 12.7731 126.003 13.6851 124.531 14.4639Z" fill="#434242"/>
    <path fill-rule="evenodd" clip-rule="evenodd" d="M112.184 32.8082C113.484 32.1198 116.02 31.1191 116.417 29.6332C115.018 29.2597 114.993 28.5954 113.595 28.2221C113.478 29.62 112.55 31.236 112.184 32.8082Z" fill="#434242"/>
    <path fill-rule="evenodd" clip-rule="evenodd" d="M120.297 13.7583C122.083 13.7583 122.112 13.9979 123.472 14.1111C123.472 12.0521 122.809 11.0706 122.767 9.17215C121.861 9.83562 120.579 12.5492 120.297 13.7583Z" fill="#434242"/>
    <path fill-rule="evenodd" clip-rule="evenodd" d="M126.295 29.2805C128.123 29.4326 129.098 30.2761 130.881 30.6916C130.543 29.4278 129.113 27.5063 128.411 26.4583C127.645 27.0198 126.542 28.3521 126.295 29.2805Z" fill="#434242"/>
    <path fill-rule="evenodd" clip-rule="evenodd" d="M128.059 17.6388L129.117 20.8138C130.175 20.1056 132.226 18.4382 132.997 17.2861C130.737 17.2861 130.083 17.6388 128.059 17.6388Z" fill="#434242"/>
    <path fill-rule="evenodd" clip-rule="evenodd" d="M115.711 14.8166C117.535 14.6648 116.821 14.1571 118.886 14.1111C118.483 12.6009 117.564 11.9656 116.685 11.0212L116.034 10.2606C115.994 10.2127 115.903 10.1099 115.871 10.071C115.838 10.0321 115.766 9.94092 115.711 9.87788V14.8167L115.711 14.8166Z" fill="#434242"/>
    <path fill-rule="evenodd" clip-rule="evenodd" d="M108.303 27.1638H113.242C112.881 25.6152 112.325 25.6896 112.184 23.9887C110.834 24.3491 111.142 24.6481 110.126 25.4594C109.106 26.2739 109.094 25.982 108.303 27.1638Z" fill="#434242"/>
</svg>
