<svg width="38" height="38" viewBox="0 0 38 38" fill="none" xmlns="http://www.w3.org/2000/svg">
    <path fill-rule="evenodd" clip-rule="evenodd" d="M23.8781 2.25209C24.4239 2.59318 27.7668 5.73128 28.1761 6.54991H23.8099L23.8781 2.25209ZM28.7901 36.2253C28.3126 36.43 28.7219 36.2936 28.1079 36.3618L15.4185 36.43C11.7345 36.43 5.04867 36.7711 1.70576 36.2936L1.63754 1.70633L22.309 1.56989C22.309 9.48334 21.0128 8.11895 28.9266 8.05073V14.8727C30.7004 15.282 30.4275 14.3269 30.4275 12.7579C30.4275 10.4384 30.7686 6.95922 29.8135 5.79949L23.8781 0.205504C22.9912 -0.135593 1.84221 0.000845977 1.29643 0.205504C0.341312 0.68304 0.0684218 1.56989 0.0684218 2.86606V29.8809C0.0684218 38.5448 -1.29603 37.9308 7.30002 37.9308C12.9625 37.9308 22.8548 38.1355 28.3126 37.9308C30.905 37.8626 30.6322 34.7245 30.2228 34.1788C29.8135 33.4966 29.1995 33.9059 28.9948 34.3834C28.7901 34.861 28.9948 35.5432 28.7901 36.2253Z" fill="#EAB4B4" stroke="#EAB4B4"/>
    <path fill-rule="evenodd" clip-rule="evenodd" d="M10.2334 19.5798C10.2334 18.5565 10.4381 18.1472 11.5296 18.1472H34.93C36.0898 18.1472 36.4309 18.42 36.4309 19.5798V29.4716C36.4309 30.6995 36.2944 30.9042 35.1347 30.9042H11.5296C10.3699 30.9042 10.2334 30.6995 10.2334 29.4716V19.5798ZM10.5745 16.7145C8.66429 17.3285 8.73251 18.3518 8.73251 20.6031C8.80073 32.405 7.57272 32.4732 13.781 32.4732C16.5781 32.405 35.1347 32.6097 36.2262 32.3368C36.9767 32.1321 37.4542 31.5864 37.7271 31.0406C38.2047 30.0855 37.9318 23.8776 37.9318 22.8543C37.9318 17.0556 38.5458 16.5781 32.9515 16.5781C29.7451 16.5781 12.0072 16.237 10.5745 16.7145Z" fill="#EAB4B4"/>
    <path fill-rule="evenodd" clip-rule="evenodd" d="M21.2172 27.4931V22.2402C23.4686 22.2402 25.447 22.4449 25.447 24.8326C25.447 27.2885 23.4686 27.4249 21.2172 27.4931ZM26.4704 26.2652C27.2891 24.0139 26.061 22.0356 24.4919 21.3534C23.605 21.0123 22.3088 21.0123 21.2172 21.0123C19.5799 21.0805 19.9892 21.6262 19.9892 23.1953C20.0575 28.9257 19.4435 28.6528 21.8312 28.6528C24.219 28.6528 25.7882 28.1071 26.4704 26.2652Z" fill="#EAB4B4"/>
    <path fill-rule="evenodd" clip-rule="evenodd" d="M14.395 22.2404C15.7594 22.2404 17.6697 21.9676 17.6697 23.6048C17.6014 25.1739 15.7594 24.901 14.395 24.901V22.2404ZM14.4632 26.129C16.5099 26.129 18.2154 26.0607 18.8295 24.4235C19.4435 22.5815 18.2154 21.2172 16.5781 21.0807C12.4165 20.6714 13.0988 21.49 13.167 23.6048C13.167 27.5616 12.553 28.7213 14.1903 28.6531C14.4632 27.9027 14.3268 27.0158 14.4632 26.129Z" fill="#EAB4B4"/>
    <path fill-rule="evenodd" clip-rule="evenodd" d="M33.5655 21.1488L32.5422 21.0124C28.3124 20.8077 28.0395 20.876 28.0395 22.2403V27.425C28.0395 28.9941 28.8582 29.0623 29.1993 28.1754C29.3357 27.8343 29.1993 26.2653 29.3357 25.5149C30.3591 25.5149 32.3375 25.7877 33.088 25.242C33.1562 23.8776 32.2011 24.3551 29.3357 24.3551L29.2675 22.2403C30.632 22.2403 32.474 22.445 33.6338 22.1039L33.5655 21.1488Z" fill="#EAB4B4"/>
</svg>
