<svg width="32" height="32" viewBox="0 0 32 32" fill="none" xmlns="http://www.w3.org/2000/svg">
    <g clip-path="url(#clip0_447:125)">
        <path d="M29.9974 29.499C29.9974 29.7751 29.7735 29.999 29.4974 29.999C29.2214 29.999 28.9975 29.7751 28.9975 29.499V13H18.5005C18.3495 13 18.2141 12.9323 18.1224 12.8271L16.2943 11H1.00259V19.3708V30.999H16.0005H30.9974V14.5C30.9974 14.224 31.2214 14 31.4973 14C31.7733 14 31.9973 14.225 31.9973 14.5V31.4865V31.5001C31.9973 31.775 31.7733 31.9999 31.4973 31.9999H16.0005H0.516132H0.502592C0.226558 31.9999 0.00259399 31.776 0.00259399 31.5001V19.3708V10.5125V10.5C0.00259399 10.224 0.226558 10 0.502592 10H16.4984V10.0021C16.6255 10.0021 16.7525 10.0511 16.8495 10.1469L18.7047 12H29.4839H29.4964C29.7724 12 29.9963 12.2251 29.9963 12.5V29.499H29.9974Z" fill="white" stroke="white" stroke-width="0.5"/>
        <path d="M2.00262 8.49897C2.00262 8.775 1.77866 8.99896 1.50262 8.99896C1.22659 8.99896 1.00262 8.775 1.00262 8.49897V0.499998C1.00262 0.223964 1.22659 0 1.50262 0H1.51512H20.4985C20.7745 0 20.9984 0.223964 20.9984 0.499998V0.512492V10.499C20.9984 10.775 20.7745 10.999 20.4985 10.999C20.2225 10.999 19.9986 10.775 19.9986 10.499V0.999995H2.00262V8.49897Z" fill="white" stroke="white" stroke-width="0.5"/>
        <path d="M5.50265 4.00116C5.22662 4.00116 5.00266 3.7772 5.00266 3.50116C5.00266 3.22513 5.22662 3.00122 5.50265 3.00122H16.4995C16.7755 3.00122 16.9995 3.22623 16.9995 3.50116C16.9995 3.7772 16.7755 4.00116 16.4995 4.00116H5.50265V4.00116Z" fill="white" stroke="white" stroke-width="0.5"/>
        <path d="M26.4985 4.00116C26.2224 4.00116 25.9985 3.7772 25.9985 3.50117C25.9985 3.22513 26.2224 3.00122 26.4985 3.00122H28.4985C28.7744 3.00122 28.9984 3.22623 28.9984 3.50117V3.51471V10.4991C28.9984 10.7751 28.7744 10.9991 28.4985 10.9991C28.2224 10.9991 27.9985 10.7751 27.9985 10.4991V4.00116H26.4985Z" fill="white" stroke="white" stroke-width="0.5"/>
        <path d="M5.50265 8.00195C5.22662 8.00195 5.00266 7.77799 5.00266 7.50195C5.00266 7.22592 5.22662 7.00195 5.50265 7.00195H16.4995C16.7755 7.00195 16.9995 7.22592 16.9995 7.50195C16.9995 7.77799 16.7755 8.00195 16.4995 8.00195H5.50265Z" fill="white" stroke="white" stroke-width="0.5"/>
        <path d="M22.4964 3.00195C22.2204 3.00195 21.9965 2.77798 21.9965 2.50195C21.9965 2.22592 22.2204 2.00195 22.4964 2.00195H24.4984C24.7735 2.00195 24.9984 2.22592 24.9984 2.50195V2.51445V10.4978C24.9984 10.7738 24.7745 10.9978 24.4984 10.9978C24.2225 10.9978 23.9985 10.7738 23.9985 10.4978V3.00195H22.4964Z" fill="white" stroke="white" stroke-width="0.5"/>
    </g>
    <defs>
        <clipPath id="clip0_447:125">
            <rect width="32" height="32" fill="white"/>
        </clipPath>
    </defs>
</svg>
