<svg width="92" height="92" viewBox="0 0 92 92" fill="none" xmlns="http://www.w3.org/2000/svg">
    <g clip-path="url(#clip0_446:69)">
        <path fill-rule="evenodd" clip-rule="evenodd" d="M46.0029 0C71.4086 0 92.0058 20.5972 92.0058 46.0029C92.0058 71.4086 71.4086 92.0058 46.0029 92.0058C20.5972 92.0058 0 71.4086 0 46.0029C0 20.5972 20.5972 0 46.0029 0Z" fill="#E5E5E5"/>
        <path fill-rule="evenodd" clip-rule="evenodd" d="M69.5525 149.482L71.9597 243.326L74.1116 243.39C77.5628 242.874 79.5002 242.497 82.3946 240.966C83.2414 240.519 85.2484 239.075 85.4224 238.495L84.9177 217.816C84.8539 216.349 84.6741 214.179 84.7669 212.88L84.2159 194.475C86.4548 194.307 87.1335 193.861 88.9722 193.339C90.8341 191.726 90.3295 191.54 90.3295 187.886L90.1961 168.124C90.2077 163.948 90.3237 158.826 90.0395 154.865C89.7321 150.59 90.0221 146.042 89.7611 141.762L89.355 128.769C89.2506 119.778 87.9803 99.3317 86.3446 91.6926C85.3354 85.2657 80.8749 77.1162 77.6092 73.5142C71.9365 67.2613 70.0397 66.4957 63.5665 64.8078C62.5746 64.5468 61.4725 64.2683 60.2313 63.9435L61.432 65.7938L57.1049 67.795C57.0933 67.7602 57.0469 67.7312 57.0353 67.65C57.0237 67.5688 56.9889 67.5514 56.9598 67.5049C56.5944 69.1523 55.3067 70.0107 53.7174 70.5386C51.9019 71.1476 50.3068 70.9968 48.3173 70.8286C45.7767 70.614 43.1259 70.0513 40.8174 69.0827C39.9125 68.7056 39.6051 68.4272 38.8626 68.0676C38.6828 68.9144 34.3325 65.6952 31.6876 64.0595C31.7456 63.4215 31.9312 63.4447 31.8442 63.1721C31.5483 63.1373 31.0031 63.1953 30.3187 63.3055C29.8604 63.1083 29.6168 63.1083 29.6922 63.4157C27.5577 63.8043 24.6053 64.5468 23.538 64.8252C17.9812 66.2811 14.559 68.2938 10.7829 72.0293C8.48019 74.3088 6.62407 77.8819 6.53126 77.7368C6.50806 77.702 6.44426 77.8238 6.39785 77.8644C6.51386 78.4909 1.35151 90.1613 0.68447 91.6578C-1.46747 96.4779 -9.51261 114.906 -10.8177 120.074C-12.001 124.755 -7.52308 129.169 -4.28066 131.872L-3.57302 132.597L-0.347999 134.726C5.99763 138.513 12.262 141.007 19.4487 142.98C21.6819 143.589 26.5948 145.085 28.6133 145.155L29.0774 144.592C30.0866 142.962 31.7688 141.356 31.7514 138.612C31.3395 138.351 30.1621 137.33 29.7792 136.976C26.27 133.74 21.183 129.529 18.1204 126.431C17.4012 125.706 16.8328 125.341 16.1425 124.645C15.5045 124.001 14.9998 123.496 14.356 122.852C10.9802 119.476 10.3827 118.954 11.798 115.596C12.5753 113.751 13.0799 113.589 14.0718 112.406C14.443 111.959 14.4952 111.808 14.9186 111.367C17.7492 108.444 22.5577 102.267 25.2665 99.5057C28.6713 96.0313 31.2409 98.9547 32.6504 100.034C33.2595 100.503 34.1585 101.269 34.6748 101.774C37.4821 104.517 43.4855 109.204 46.5308 112.127C46.9194 112.504 47.1572 112.615 47.569 112.968C47.9402 113.293 48.1607 113.572 48.5435 113.873C49.3265 114.494 49.8254 114.993 50.5968 115.55C51.9367 116.953 53.4796 118.131 54.9065 119.366C56.2058 120.492 58.2823 121.971 57.5109 124.952C57.1803 126.24 55.0051 128.566 54.0597 129.61L50.1734 134.151L47.946 215.09C48.2825 214.585 50.1038 208.391 50.5098 207.184C53.4216 198.484 55.4982 193.217 59.7614 184.812C63.4331 177.585 63.8681 178.803 65.0282 169.023C65.5792 164.4 66.3507 153.548 66.2115 149.058C66.9655 148.844 68.8971 147.939 69.2219 147.371C69.2219 148.159 69.0943 148.403 69.3611 149.111L69.5583 149.476L69.5525 149.482ZM68.636 106.107L68.4678 107.922C68.4388 107.278 68.5026 106.681 68.636 106.107Z" fill="#9CAEC8"/>
        <path fill-rule="evenodd" clip-rule="evenodd" d="M6.38624 77.8645C6.43264 77.8239 6.49645 77.6963 6.51965 77.7369C6.61246 77.8877 8.46858 74.3088 10.7713 72.0293C14.5532 68.2938 17.9696 66.2811 23.5264 64.8252C25.0809 64.4192 28.799 66.1825 30.017 66.3217C31.1133 64.9818 38.6248 69.4017 41.1944 68.9841C41.3046 67.3136 39.1585 55.649 39.3209 53.8624C40.1619 44.7848 38.7814 47.3544 38.3928 43.4914C38.2362 41.9194 41.7628 43.0041 41.7628 41.4322C48.4971 39.5819 38.1318 30.8697 45.0226 24.3443C48.3057 21.2353 56.5132 23.9498 58.4389 20.5914C59.5932 20.9684 61.9598 22.6563 62.5224 23.2712C63.5027 24.3443 64.1987 25.748 64.9586 27.4243C67.9632 34.0425 66.4667 43.0389 64.1755 49.7558C62.6326 54.2743 61.2231 56.1362 56.5828 55.1501L55.6026 63.2823C56.4204 63.7057 56.9947 68.694 57.5689 69.2683C57.8937 69.5931 58.1141 69.7845 58.3983 70.1325C58.729 70.5444 58.758 70.7126 59.309 71.0722C68.6302 73.52 71.049 66.2985 77.5918 73.5084L76.658 49.9936C75.1673 41.467 78.2995 33.4973 73.1719 22.0299C69.8831 14.6634 65.2834 8.32938 57.3543 6.21224C55.3995 5.6902 52.6154 5.35958 50.4924 5.53359C46.699 5.84681 43.4739 3.53826 36.8557 6.62987C35.7188 7.1635 35.1736 7.44772 34.3499 8.07996C15.5799 17.494 25.8582 37.4125 22.5751 48.2883C20.3188 55.7592 5.27257 66.3797 5.94541 74.3784C6.03242 75.4457 6.37464 76.9132 6.38044 77.8645H6.38624Z" fill="#434242"/>
        <path fill-rule="evenodd" clip-rule="evenodd" d="M38.561 59.1292C38.4508 61.2811 38.2884 66.31 38.8626 68.0676C39.6109 68.4272 39.9125 68.6998 40.8174 69.0826C43.1317 70.0513 45.7767 70.6139 48.3173 70.8286C50.3068 70.9968 51.9019 71.1476 53.7174 70.5385C55.301 70.0049 56.5886 69.1522 56.9599 67.5049L56.4146 60.7359C51.3045 60.5271 47.3718 57.8995 44.4948 54.2916C43.8278 53.4564 42.3835 51.5423 42.0471 50.3938C43.764 51.2406 43.8452 52.1861 48.5029 53.6652C50.7535 54.3786 54.0597 55.0747 56.5886 55.1559C61.229 56.142 62.6385 54.2742 64.1814 49.7615C66.4725 43.0447 67.969 34.0425 64.9644 27.43C64.2046 25.7537 63.5085 24.35 62.5282 23.277C61.9656 22.6621 59.599 20.9684 58.4448 20.5972C56.5248 23.9556 44.4252 19.6865 41.1422 22.7955C40.1387 23.7468 38.1492 41.0029 38.4044 43.4913C38.793 47.3544 40.1735 44.779 39.3325 53.8624C39.1643 55.6489 38.677 57.4645 38.5668 59.1408L38.561 59.1292Z" fill="#FEB17D"/>
        <path fill-rule="evenodd" clip-rule="evenodd" d="M56.4146 60.736L56.4552 60.5677L56.5886 55.1502C54.0597 55.069 50.7534 54.3729 48.5029 53.6595C43.8452 52.1804 43.764 51.2349 42.0471 50.3881C42.3777 51.5365 43.8278 53.4507 44.4948 54.2859C47.3776 57.8938 51.3045 60.5213 56.4146 60.7301V60.736Z" fill="#ED985E"/>
    </g>
    <defs>
        <clipPath id="clip0_446:69">
            <rect width="92" height="92" fill="white"/>
        </clipPath>
    </defs>
</svg>
