<svg width="88" height="88" viewBox="0 0 88 88" fill="none" xmlns="http://www.w3.org/2000/svg">
    <g clip-path="url(#clip0_446:85)">
        <path fill-rule="evenodd" clip-rule="evenodd" d="M44 0C68.3017 0 88 19.6983 88 44C88 68.3017 68.3017 88 44 88C19.6983 88 0 68.3017 0 44C0 19.6983 19.6983 0 44 0Z" fill="#E5E5E5"/>
        <path fill-rule="evenodd" clip-rule="evenodd" d="M88.0694 96.4625C88.0694 96.4625 87.2013 73.8177 70.1569 67.8898C53.1125 61.962 25.1995 65.3699 25.1995 65.3699C25.1995 65.3699 8.38331 69.1498 3.269 81.3378C-1.85028 93.5259 -0.0198428 110.332 -0.0198428 110.332H88.8036L88.0744 96.4675L88.0694 96.4625Z" fill="#D8C1C1"/>
        <path fill-rule="evenodd" clip-rule="evenodd" d="M43.7817 49.0398L44.7937 49.02L48.6579 49.3771C48.1569 50.5726 46.262 51.5102 44.4564 51.4903C42.7351 51.4754 40.9939 50.5329 40.3738 49.3424L43.7817 49.0398ZM30.2891 44.5853C31.0232 47.7253 32.308 50.1807 34.1186 51.9765C34.8776 52.7305 34.4361 55.2455 34.317 56.942C34.2178 58.3111 33.8011 60.8112 33.8954 62.0662C33.7714 64.4522 33.9202 68.1429 34.1632 70.3404C34.5154 70.5537 34.2228 70.3503 34.4758 70.5983C35.7754 71.8633 36.8072 73.2274 38.5434 74.4527C39.7389 75.296 42.3779 77.1562 44.2827 77.0768C45.4485 77.0272 49.0548 74.9636 49.9229 74.3435C50.8207 73.7036 51.4458 73.0885 52.2444 72.4635C53.1324 71.7641 53.4201 70.9605 54.3775 70.261L54.5114 62.0712C54.5808 61.0096 54.055 58.063 53.9161 56.6939C53.4796 52.408 53.559 53.4795 54.7545 51.9467C57.0462 49.0101 57.4728 47.7402 58.5691 43.7023C58.202 40.4581 59.0255 39.5801 58.0979 34.059C57.7109 31.7375 57.6018 27.0646 56.5948 25.4624C55.2356 25.7798 55.3696 26.7372 52.2891 27.6301C46.3166 29.3564 42.497 27.7541 37.9829 24.5844C37.71 24.9117 36.6336 25.76 36.1723 26.137C33.5134 28.3196 31.7822 28.8355 30.9339 31.4845C29.9666 34.5054 30.0014 41.1278 30.2891 44.5853Z" fill="#FEB17D"/>
        <path fill-rule="evenodd" clip-rule="evenodd" d="M30.2891 44.5853C30.0063 41.1278 29.9716 34.5005 30.9339 31.4845C31.7822 28.8356 33.5085 28.3197 36.1723 26.137C36.6336 25.7551 37.71 24.9118 37.9829 24.5844C42.497 27.7591 46.3166 29.3564 52.2891 27.6302C55.3696 26.7422 55.2406 25.7848 56.5948 25.4624C57.6018 27.0597 57.7109 31.7375 58.0979 34.059C59.0255 39.5801 58.202 40.4581 58.5691 43.7023C59.3628 43.1567 61.1039 40.4085 61.595 39.4561C62.4879 37.7149 63.0237 36.1325 63.4453 34.0689C65.122 25.9039 61.7786 9.19679 51.7236 10.0798C43.3899 10.809 39.4512 8.10547 32.7545 11.9747C27.1689 15.204 27.0498 21.3898 26.1024 27.1738C25.6906 29.6987 25.9436 31.5639 26.4546 33.9152C26.9556 36.2119 29.1432 43.117 30.2791 44.5952L30.2891 44.5853Z" fill="#434242"/>
        <path fill-rule="evenodd" clip-rule="evenodd" d="M40.3738 49.3425C40.9939 50.533 42.7351 51.4755 44.4564 51.4904C46.262 51.5053 48.1569 50.5677 48.6579 49.3772L44.7937 49.02L43.7817 49.0399L40.3738 49.3425Z" fill="white"/>
    </g>
    <defs>
        <clipPath id="clip0_446:85">
            <rect width="88" height="88" fill="white"/>
        </clipPath>
    </defs>
</svg>
