<svg xmlns="http://www.w3.org/2000/svg" display="none">

    <symbol id="phone" viewBox="0 0 13 14">
        <path fill-rule="evenodd" clip-rule="evenodd"
              d="M5.05506 3.77678C5.46447 2.84321 4.53123 1.56765 4.15882 1.01862C3.60877 0.208733 2.98963 -0.492238 1.9797 0.45534C1.26697 1.1241 0.754899 1.40833 0.293056 2.5762C-0.941302 5.69676 2.00053 9.61812 3.9682 11.4334C6.77674 14.0243 9.74307 15.2706 12.7454 12.1752C13.59 11.3043 12.0979 10.1844 11.6929 9.86178C11.0921 9.38307 10.1814 8.45983 9.11315 9.21514C8.12674 9.91267 7.53897 11.7764 4.7145 8.31797C1.79766 4.74648 4.43739 5.18536 5.05506 3.77678Z"/>
    </symbol>

    <symbol id="location" viewBox="0 0 20 25">
        <path fill-rule="evenodd" clip-rule="evenodd"
              d="M5.64739 10.8496C5.00656 4.78832 13.7147 4.10765 14.3322 9.72992C14.6113 12.2757 12.7855 14.3699 10.6415 14.6415C7.97685 14.9795 5.88595 13.1096 5.64739 10.8496ZM9.91027 24.9985L12.2241 21.7831C16.0676 17.1289 21.4204 14.1188 19.6507 7.40994C17.6814 -0.0600967 7.63383 -2.82069 2.42606 3.55016C0.756147 5.59218 -0.658057 8.55651 0.322687 12.1131C1.78367 17.4226 7.17074 19.3178 9.91027 24.9985Z"/>
    </symbol>

    <symbol id="mail" viewBox="0 0 21 15">
        <path fill-rule="evenodd" clip-rule="evenodd"
              d="M0 14.9911H21V5.13721C17.7847 6.64545 13.866 11.0696 10.4498 11.0696C7.23445 10.9691 2.71292 6.44435 0 5.13721V6.14271V14.9911Z"/>
        <path fill-rule="evenodd" clip-rule="evenodd"
              d="M0 1.7196C0 2.42345 4.2201 5.03775 4.82297 5.43994C11.4545 9.66304 9.3445 10.2663 18.5885 3.7306C21.3014 1.82015 21 2.82565 21 0.0102539H0V1.7196Z"/>
    </symbol>

    <symbol id="arrow-left" viewBox="0 0 14 25">
        <path d="M11.1477 24.5603C11.38 24.7831 11.6896 24.9071 12.0115 24.9061C12.3334 24.9051 12.6423 24.7792 12.8731 24.5549C13.104 24.3307 13.2388 24.0256 13.2492 23.7039C13.2596 23.3822 13.1446 23.069 12.9287 22.8304L3.18573 12.7998L13.2163 3.05685C13.34 2.94492 13.4399 2.80922 13.51 2.65784C13.5801 2.50647 13.619 2.34253 13.6243 2.17581C13.6297 2.00908 13.6014 1.84298 13.5412 1.68741C13.481 1.53184 13.3901 1.39 13.2738 1.27034C13.1576 1.15068 13.0185 1.05566 12.8647 0.990938C12.711 0.926218 12.5458 0.893132 12.379 0.893649C12.2121 0.894165 12.0471 0.928274 11.8938 0.993944C11.7404 1.05961 11.6019 1.15549 11.4864 1.27587L0.565337 11.8838C0.329353 12.1133 0.194116 12.4271 0.189328 12.7562C0.18454 13.0854 0.310593 13.4029 0.539802 13.6392L11.1477 24.5603Z"/>
    </symbol>

    <symbol id="arrow-right" viewBox="0 0 15 25">
        <path d="M3.06529 0.856584C2.82981 0.637164 2.51836 0.517709 2.19655 0.523387C1.87474 0.529065 1.5677 0.659433 1.34011 0.887023C1.11252 1.11461 0.982149 1.42166 0.976471 1.74347C0.970793 2.06528 1.09025 2.37673 1.30967 2.61221L11.1975 12.5L1.30967 22.3878C1.18762 22.5016 1.08974 22.6387 1.02184 22.7911C0.95395 22.9434 0.917443 23.1079 0.9145 23.2747C0.911557 23.4415 0.942239 23.6072 1.00471 23.7619C1.06719 23.9165 1.16018 24.057 1.27814 24.175C1.39609 24.2929 1.5366 24.3859 1.69127 24.4484C1.84595 24.5109 2.01162 24.5416 2.17841 24.5386C2.3452 24.5357 2.50968 24.4992 2.66206 24.4313C2.81443 24.3634 2.95157 24.2655 3.06529 24.1435L13.8309 13.3778C14.0635 13.1449 14.1942 12.8292 14.1942 12.5C14.1942 12.1708 14.0635 11.8551 13.8309 11.6222L3.06529 0.856584Z"/>
    </symbol>

    <symbol id="close" viewBox="0 0 12 12">
        <rect y="1.41455" width="1.87332" height="14.9866" rx="0.936661" transform="rotate(-45.4862 0 1.41455)"/>
        <rect x="1.41449" y="12" width="1.87332" height="14.9866" rx="0.936661"
              transform="rotate(-135.486 1.41449 12)"/>
    </symbol>

    <symbol id="nav-prev" viewBox="0 0 43 8">
        <path d="M0.646446 3.64645C0.451183 3.84171 0.451183 4.15829 0.646446 4.35355L3.82843 7.53553C4.02369 7.7308 4.34027 7.7308 4.53553 7.53553C4.7308 7.34027 4.7308 7.02369 4.53553 6.82843L1.70711 4L4.53553 1.17157C4.7308 0.976311 4.7308 0.659728 4.53553 0.464466C4.34027 0.269204 4.02369 0.269204 3.82843 0.464466L0.646446 3.64645ZM43 3.5L1 3.5L1 4.5L43 4.5L43 3.5Z"/>
    </symbol>

    <symbol id="nav-next" viewBox="0 0 56 8">
        <path d="M55.3536 4.35355C55.5488 4.15829 55.5488 3.84171 55.3536 3.64645L52.1716 0.464466C51.9763 0.269204 51.6597 0.269204 51.4645 0.464466C51.2692 0.659728 51.2692 0.976311 51.4645 1.17157L54.2929 4L51.4645 6.82843C51.2692 7.02369 51.2692 7.34027 51.4645 7.53553C51.6597 7.7308 51.9763 7.7308 52.1716 7.53553L55.3536 4.35355ZM55 3.5L0 3.5V4.5L55 4.5V3.5Z"/>
    </symbol>

</svg>